<?xml version="1.0" encoding="UTF-8" standalone="no"?>
<svg
   xmlns:dc="http://purl.org/dc/elements/1.1/"
   xmlns:cc="http://creativecommons.org/ns#"
   xmlns:rdf="http://www.w3.org/1999/02/22-rdf-syntax-ns#"
   xmlns:svg="http://www.w3.org/2000/svg"
   xmlns="http://www.w3.org/2000/svg"
   xmlns:sodipodi="http://sodipodi.sourceforge.net/DTD/sodipodi-0.dtd"
   xmlns:inkscape="http://www.inkscape.org/namespaces/inkscape"
   version="1.1"
   x="0px"
   y="0px"
   viewBox="0 0 230 230"
   xml:space="preserve"
   id="svg40"
   sodipodi:docname="administration_large.svg"
   inkscape:version="0.92.1 r15371"
   width="172.03343"
   height="172.55553"><metadata
     id="metadata46"><rdf:RDF><cc:Work
         rdf:about=""><dc:format>image/svg+xml</dc:format><dc:type
           rdf:resource="http://purl.org/dc/dcmitype/StillImage" /><dc:title></dc:title></cc:Work></rdf:RDF></metadata><defs
     id="defs44" /><sodipodi:namedview
     pagecolor="#ffffff"
     bordercolor="#666666"
     borderopacity="1"
     objecttolerance="10"
     gridtolerance="10"
     guidetolerance="10"
     inkscape:pageopacity="0"
     inkscape:pageshadow="2"
     inkscape:window-width="1920"
     inkscape:window-height="1017"
     id="namedview42"
     showgrid="false"
     inkscape:zoom="3.9265224"
     inkscape:cx="112.71699"
     inkscape:cy="98.431063"
     inkscape:window-x="-8"
     inkscape:window-y="-8"
     inkscape:window-maximized="1"
     inkscape:current-layer="svg40" /><style
     type="text/css"
     id="style2">
	.st0{fill:#010101;}
</style><g
     id="g4553"
     transform="matrix(2.6105224,0,0,2.6105224,-2.8715746,-2.6105224)"><g
       style="fill:#e6e6e6"
       id="g8"><g
         style="fill:#e6e6e6"
         id="g6"><path
           class="st0"
           d="M 41.2,33.6 C 41.1,33.1 40.9,33 40.6,32.9 40.2,32.8 39.9,32.8 39.7,33 c 0,0 -5.1,3.8 -5.1,3.8 -0.4,0.3 -1,0.3 -1.1,0.1 l -1.6,-2.1 c -0.2,-0.2 -0.1,-0.7 0.4,-1.1 l 5,-3.8 c 0,0 0,0 0,0 0.2,-0.2 0.4,-0.5 0.4,-0.9 0,-0.3 -0.1,-0.6 -0.5,-0.8 0,0 0,0 0,0 -2.7,-1.5 -6.1,-1.2 -8.5,0.7 -1.8,1.3 -3,3.4 -3.1,5.9 L 12,44.9 c -2.2,-0.5 -4.6,0 -6.5,1.4 -2.5,1.9 -3.6,5 -3,8 0,0 0,0 0,0 0.1,0.5 0.3,0.6 0.6,0.7 0.4,0.1 0.7,0.1 0.9,-0.1 0,0 5.1,-3.8 5.1,-3.8 0.4,-0.3 1,-0.3 1.1,-0.1 l 1.6,2.1 c 0.1,0.1 0.1,0.3 0.1,0.4 0,0.3 -0.2,0.5 -0.4,0.7 0,0 -5.1,3.8 -5.1,3.8 -0.2,0.2 -0.4,0.5 -0.4,0.9 0,0.4 0.2,0.7 0.5,0.8 2.7,1.4 6.1,1.2 8.5,-0.7 1.8,-1.4 3,-3.4 3.1,-5.9 L 31.7,43 c 2.4,0.5 4.7,-0.1 6.5,-1.4 4.7,-3.5 2.7,-9.1 3,-8 z M 13.9,57.5 c -1.4,1 -3.1,1.4 -4.8,1.1 l 3.6,-2.7 c 0.7,-0.5 1.1,-1.2 1.2,-2 C 14,53.2 13.8,52.6 13.4,52 L 11.8,49.9 C 10.9,48.7 9.2,48.6 7.9,49.6 l -3.6,2.7 c 0.1,-1.7 1,-3.3 2.4,-4.3 2.6,-2 6.4,-1.5 8.4,1.2 2,2.5 1.4,6.3 -1.2,8.3 z m 4.2,-6.7 c -0.5,-2.1 -1.9,-4 -3.9,-5.1 l 11.5,-8.6 c 0.3,1.1 0.7,2.1 1.4,3 0.7,0.9 1.5,1.6 2.5,2.1 z M 37,40 c -2.6,2 -6.4,1.5 -8.4,-1.2 -2,-2.6 -1.5,-6.4 1.2,-8.4 1.4,-1 3.1,-1.4 4.8,-1.1 L 31,32.1 c -1.3,1 -1.6,2.7 -0.8,3.9 l 1.6,2.1 c 0.9,1.2 2.6,1.3 3.9,0.3 l 3.6,-2.7 C 39.2,37.4 38.4,39 37,40 Z"
           id="path4"
           inkscape:connector-curvature="0"
           style="fill:#e6e6e6" /></g></g><g
       style="fill:#b3b3b3"
       id="g14"><g
         style="fill:#b3b3b3"
         id="g12"><path
           class="st0"
           d="m 5.9,22.6 -1.7,2.2 c -0.3,0.4 -0.3,1 0.1,1.3 l 2.3,2.3 c 0.4,0.4 0.9,0.4 1.3,0.1 l 2.2,-1.7 c 1,0.6 2.1,1 3.2,1.3 l 0.4,2.8 c 0.1,0.5 0.5,0.9 1,0.9 h 3.2 c 0.5,0 0.9,-0.4 1,-0.9 l 0.4,-2.8 c 1.1,-0.3 2.2,-0.7 3.2,-1.3 l 2.1,1.6 c 0.2,0.1 0.4,0.2 0.7,0.2 0.3,0 0.6,-0.1 0.8,-0.3 L 28.3,26 c 0.4,-0.4 0.4,-0.9 0.1,-1.3 l -1.7,-2.2 c 0.6,-1 1,-2.1 1.3,-3.2 l 2.7,-0.4 c 0.5,-0.1 0.9,-0.5 0.9,-1 v -3.2 c 0,-0.5 -0.4,-0.9 -0.9,-1 L 28,13.4 C 27.7,12.3 27.3,11.2 26.7,10.2 L 28.3,8 C 28.6,7.6 28.6,7 28.2,6.6 L 26,4.4 C 25.6,4 25.1,4 24.7,4.3 L 22.5,6 C 21.5,5.4 20.4,5 19.3,4.7 L 18.9,1.9 C 18.8,1.4 18.4,1 17.9,1 h -3.2 c -0.5,0 -0.9,0.4 -1,0.9 L 13.3,4.7 C 12.2,5 11.1,5.4 10.1,6 L 7.9,4.3 C 7.5,4 7,4 6.6,4.4 L 4.3,6.7 C 4,7 4,7.6 4.3,8 L 6,10.2 c -0.6,1 -1,2.1 -1.3,3.2 L 2,13.8 c -0.5,0.1 -0.9,0.5 -0.9,1 V 18 c 0,0.5 0.4,0.9 0.9,1 l 2.7,0.4 c 0.2,1.1 0.6,2.2 1.2,3.2 z M 3,15.6 5.6,15.3 C 6,15.2 6.4,14.9 6.5,14.5 6.8,13.1 7.3,11.8 8.1,10.7 8.3,10.3 8.3,9.9 8.1,9.5 l -1.7,-2 1,-1.1 2,1.6 C 9.7,8.3 10.3,8.3 10.6,8 11.7,7.2 13,6.7 14.3,6.5 14.7,6.4 15,6.1 15.1,5.6 L 15.6,3 H 17 l 0.3,2.6 c 0.1,0.4 0.4,0.8 0.8,0.9 1.4,0.2 2.7,0.7 3.9,1.5 0.4,0.2 0.8,0.2 1.2,0 l 2,-1.6 1,1.1 -1.6,2.1 c -0.3,0.3 -0.3,0.8 0,1.2 0.8,1.1 1.3,2.4 1.6,3.8 0.1,0.4 0.4,0.7 0.9,0.8 l 2.6,0.3 v 1.5 L 27,17.5 c -0.4,0.1 -0.8,0.4 -0.8,0.8 -0.3,1.4 -0.8,2.7 -1.6,3.8 -0.2,0.4 -0.2,0.8 0,1.2 l 1.6,2.1 -1,1.1 -2,-1.6 c -0.3,-0.3 -0.8,-0.3 -1.2,0 -1.1,0.8 -2.4,1.3 -3.8,1.6 -0.4,0.1 -0.7,0.4 -0.8,0.9 L 17,29.8 H 15.5 L 15.2,27.2 C 15.1,26.8 14.8,26.4 14.4,26.3 13,26 11.8,25.5 10.6,24.7 10.2,24.5 9.8,24.5 9.4,24.7 l -2,1.6 -1,-1.1 1.5,-2 C 8.2,22.9 8.2,22.3 7.9,22 7.1,20.9 6.6,19.6 6.4,18.2 6.3,17.8 6,17.5 5.6,17.4 L 3,17.1 Z"
           id="path10"
           inkscape:connector-curvature="0"
           style="fill:#b3b3b3" /></g></g><g
       style="fill:#b3b3b3"
       id="g20"><g
         style="fill:#b3b3b3"
         id="g18"><path
           class="st0"
           d="m 16.3,23.1 c 3.7,0 6.7,-3 6.7,-6.7 0,-3.7 -3,-6.7 -6.7,-6.7 -3.7,0 -6.7,3 -6.7,6.7 0,3.7 3,6.7 6.7,6.7 z m 0,-11.4 c 2.6,0 4.7,2.1 4.7,4.7 0,2.6 -2.1,4.7 -4.7,4.7 -2.6,0 -4.7,-2.1 -4.7,-4.7 0,-2.6 2.1,-4.7 4.7,-4.7 z"
           id="path16"
           inkscape:connector-curvature="0"
           style="fill:#b3b3b3" /></g></g><g
       style="fill:#b3b3b3"
       id="g26"><g
         style="fill:#b3b3b3"
         id="g24"><path
           class="st0"
           d="M 60.4,24.8 H 49.5 c -3.7,0 -6.7,3.4 -6.7,7.6 v 18.7 c 0,0.6 0.4,1 1,1 h 3.7 v 11.8 c 0,1.7 1.4,3.2 3.1,3.2 h 8.5 c 1.7,0 3.1,-1.4 3.1,-3.2 V 52.1 H 66 c 0.6,0 1,-0.4 1,-1 V 32.4 c 0,-4.2 -3,-7.6 -6.6,-7.6 z M 65,50.1 h -2.7 v -9.4 c 0,-0.6 -0.4,-1 -1,-1 -0.6,0 -1,0.4 -1,1 v 23.2 c 0,0.6 -0.5,1.2 -1.1,1.2 H 56 V 51.7 c 0,-0.6 -0.4,-1 -1,-1 -0.6,0 -1,0.4 -1,1 V 65 h -3.2 c -0.6,0 -1.1,-0.5 -1.1,-1.2 V 40.7 c 0,-0.6 -0.4,-1 -1,-1 -0.6,0 -1,0.4 -1,1 v 9.4 H 45 V 32.4 c 0,-3.1 2.1,-5.6 4.7,-5.6 h 10.8 c 2.6,0 4.6,2.5 4.6,5.6 v 17.7 z"
           id="path22"
           inkscape:connector-curvature="0"
           style="fill:#b3b3b3" /></g></g><g
       style="fill:#b3b3b3"
       id="g32"><g
         style="fill:#b3b3b3"
         id="g30"><path
           class="st0"
           d="m 54.9,23.8 c 4.1,0 7.4,-3.3 7.4,-7.5 0,-4.1 -3.3,-7.5 -7.4,-7.5 -4.1,0 -7.4,3.3 -7.4,7.5 0.1,4.1 3.4,7.5 7.4,7.5 z m 0,-13 c 3,0 5.4,2.5 5.4,5.5 0,3 -2.4,5.5 -5.4,5.5 -3,0 -5.4,-2.5 -5.4,-5.5 0,-3 2.5,-5.5 5.4,-5.5 z"
           id="path28"
           inkscape:connector-curvature="0"
           style="fill:#b3b3b3" /></g></g></g></svg>
