<?xml version="1.0" encoding="UTF-8" standalone="no"?>
<svg
   xmlns:dc="http://purl.org/dc/elements/1.1/"
   xmlns:cc="http://creativecommons.org/ns#"
   xmlns:rdf="http://www.w3.org/1999/02/22-rdf-syntax-ns#"
   xmlns:svg="http://www.w3.org/2000/svg"
   xmlns="http://www.w3.org/2000/svg"
   id="svg4805"
   version="1.1"
   viewBox="0 0 13.570655 13.570302"
   height="51.28933"
   width="51.290665">
  <defs
     id="defs4799">
    <clipPath
       id="clipPath4767"
       clipPathUnits="userSpaceOnUse">
      <path
         id="path4765"
         d="M 0,0 H 595.276 V 841.89 H 0 Z" />
    </clipPath>
    <clipPath
       id="clipPath4749-1"
       clipPathUnits="userSpaceOnUse">
      <path
         id="path4747-5"
         d="M 0,0 H 595.276 V 841.89 H 0 Z" />
    </clipPath>
  </defs>
  <metadata
     id="metadata4802">
    <rdf:RDF>
      <cc:Work
         rdf:about="">
        <dc:format>image/svg+xml</dc:format>
        <dc:type
           rdf:resource="http://purl.org/dc/dcmitype/StillImage" />
        <dc:title></dc:title>
      </cc:Work>
    </rdf:RDF>
  </metadata>
  <g
     transform="translate(-79.393244,-99.714847)"
     id="layer1">
    <g
       id="g4743"
       transform="matrix(0.35277777,0,0,-0.35277777,7.2017182,346.1848)">
      <g
         clip-path="url(#clipPath4749-1)"
         id="g4745">
        <g
           transform="translate(223.8714,660.188)"
           id="g4751">
          <path
             id="path4753"
             style="fill:#231f20;fill-opacity:1;fill-rule:nonzero;stroke:none"
             d="m 0,0 c 10.622,0 19.234,8.611 19.234,19.234 0,10.622 -8.612,19.233 -19.234,19.233 -10.622,0 -19.234,-8.611 -19.234,-19.233 C -19.234,8.611 -10.622,0 0,0" />
        </g>
      </g>
    </g>
    <path
       id="path4755"
       style="fill:#fdd804;fill-opacity:1;fill-rule:nonzero;stroke:none;stroke-width:0.35277775"
       d="m 86.826483,109.03665 h 1.43263 v -4.97487 h -1.43263 z" />
    <g
       transform="matrix(0.35277777,0,0,-0.35277777,81.492342,104.06157)"
       id="g4757">
      <path
         id="path4759"
         style="fill:#fdd804;fill-opacity:1;fill-rule:nonzero;stroke:none"
         d="M 0,0 4.652,-14.102 H 9.21 L 4.558,0 Z" />
    </g>
    <g
       id="g4761"
       transform="matrix(0.35277777,0,0,-0.35277777,7.2017182,346.1848)">
      <g
         clip-path="url(#clipPath4767)"
         id="g4763">
        <g
           transform="translate(220.9643,680.6928)"
           id="g4769">
          <path
             id="path4771"
             style="fill:#fdd804;fill-opacity:1;fill-rule:nonzero;stroke:none"
             d="M 0,0 C 1.612,0 2.919,1.307 2.919,2.919 2.919,4.531 1.612,5.838 0,5.838 -1.612,5.838 -2.919,4.531 -2.919,2.919 -2.919,1.307 -1.612,0 0,0" />
        </g>
        <g
           transform="translate(234.5102,680.6928)"
           id="g4773">
          <path
             id="path4775"
             style="fill:#fdd804;fill-opacity:1;fill-rule:nonzero;stroke:none"
             d="M 0,0 C 1.612,0 2.919,1.307 2.919,2.919 2.919,4.531 1.612,5.838 0,5.838 -1.612,5.838 -2.919,4.531 -2.919,2.919 -2.919,1.307 -1.612,0 0,0" />
        </g>
        <g
           transform="translate(234.5102,673.7335)"
           id="g4777">
          <path
             id="path4779"
             style="fill:#fdd804;fill-opacity:1;fill-rule:nonzero;stroke:none"
             d="M 0,0 C 1.612,0 2.919,1.307 2.919,2.919 2.919,4.531 1.612,5.838 0,5.838 -1.612,5.838 -2.919,4.531 -2.919,2.919 -2.919,1.307 -1.612,0 0,0" />
        </g>
      </g>
    </g>
  </g>
</svg>
