<?xml version="1.0" encoding="UTF-8" standalone="no"?>
<svg
   xmlns:dc="http://purl.org/dc/elements/1.1/"
   xmlns:cc="http://creativecommons.org/ns#"
   xmlns:rdf="http://www.w3.org/1999/02/22-rdf-syntax-ns#"
   xmlns:svg="http://www.w3.org/2000/svg"
   xmlns="http://www.w3.org/2000/svg"
   xmlns:sodipodi="http://sodipodi.sourceforge.net/DTD/sodipodi-0.dtd"
   xmlns:inkscape="http://www.inkscape.org/namespaces/inkscape"
   viewBox="0 0 161.06096 145.47056"
   version="1.1"
   id="svg14"
   sodipodi:docname="machine-tower.svg"
   width="161.06096"
   height="145.47057"
   inkscape:version="0.92.1 r15371">
  <metadata
     id="metadata18">
    <rdf:RDF>
      <cc:Work
         rdf:about="">
        <dc:format>image/svg+xml</dc:format>
        <dc:type
           rdf:resource="http://purl.org/dc/dcmitype/StillImage" />
        <dc:title>machine</dc:title>
      </cc:Work>
    </rdf:RDF>
  </metadata>
  <sodipodi:namedview
     pagecolor="#ffffff"
     bordercolor="#666666"
     borderopacity="1"
     objecttolerance="10"
     gridtolerance="10"
     guidetolerance="10"
     inkscape:pageopacity="0"
     inkscape:pageshadow="2"
     inkscape:window-width="1920"
     inkscape:window-height="1017"
     id="namedview16"
     showgrid="false"
     inkscape:zoom="2.36"
     inkscape:cx="6.1814083"
     inkscape:cy="72.736634"
     inkscape:window-x="-8"
     inkscape:window-y="-8"
     inkscape:window-maximized="1"
     inkscape:current-layer="svg14" />
  <defs
     id="defs4621">
    <style
       id="style4619">.cls-1{fill:#dbdcdd;}.cls-2{fill:#a6a8ab;}</style>
  </defs>
  <title
     id="title4623">machine</title>
  <g
     id="g4515"
     transform="matrix(1.611375,0,0,1.611375,-0.01356642,-7.8356462)">
    <path
       id="path4625"
       d="m 36.6,35.08 a 14.11,14.11 0 0 0 1.19,-3.45 l 2.29,-0.14 -0.44,-7.36 -2.3,0.14 A 14.22,14.22 0 0 0 35.74,21 l 1.53,-1.72 -5.52,-4.89 -1.53,1.73 a 13.9,13.9 0 0 0 -3.44,-1.19 l -0.14,-2.3 -7.37,0.45 0.14,2.29 A 14.36,14.36 0 0 0 16.14,17 L 14.42,15.48 9.53,21 l 1.72,1.53 a 13.9,13.9 0 0 0 -1.19,3.44 l -2.29,0.14 0.44,7.36 2.3,-0.14 a 13.84,13.84 0 0 0 1.6,3.28 l -1.53,1.72 5.52,4.89 1.53,-1.72 a 14.47,14.47 0 0 0 3.44,1.19 l 0.14,2.29 7.37,-0.45 -0.14,-2.29 a 14.36,14.36 0 0 0 3.27,-1.6 l 1.72,1.52 4.89,-5.52 z M 30,34.19 A 8.16,8.16 0 1 1 29.3,22.67 8.18,8.18 0 0 1 30,34.19 Z"
       class="cls-1"
       inkscape:connector-curvature="0"
       style="fill:#dbdcdd" />
    <path
       id="path4627"
       d="m 90.09,57.15 1.43,0.48 1.54,-4.63 -1.43,-0.48 a 9,9 0 0 0 -0.17,-2.38 l 1.35,-0.67 -2.16,-4.33 -1.35,0.67 a 9.35,9.35 0 0 0 -1.8,-1.57 l 0.5,-1.39 -4.59,-1.53 -0.48,1.43 a 9,9 0 0 0 -2.38,0.17 l -0.67,-1.35 -4.33,2.15 0.67,1.35 a 9,9 0 0 0 -1.56,1.81 L 73.23,46.4 71.67,51 73.1,51.48 a 9.08,9.08 0 0 0 0.17,2.39 l -1.35,0.67 2.16,4.33 1.35,-0.68 a 9,9 0 0 0 1.8,1.57 l -0.48,1.43 4.59,1.54 0.48,-1.44 A 9,9 0 0 0 84.2,61.13 L 84.87,62.48 89.2,60.3 88.53,59 a 9,9 0 0 0 1.56,-1.85 z m -9.17,-0.83 a 4.55,4.55 0 1 1 5.76,-2.87 4.55,4.55 0 0 1 -5.76,2.87 z"
       class="cls-2"
       inkscape:connector-curvature="0"
       style="fill:#a6a8ab" />
    <path
       id="path4629"
       d="m 35.3,89.59 1.43,0.47 1.53,-4.58 L 36.83,85 A 9,9 0 0 0 36.67,82.62 L 38,81.94 35.84,77.62 34.49,78.29 a 9.35,9.35 0 0 0 -1.8,-1.57 l 0.47,-1.43 -4.56,-1.53 -0.48,1.43 a 9.42,9.42 0 0 0 -2.38,0.16 L 25.06,74 l -4.32,2.15 0.67,1.35 a 9.42,9.42 0 0 0 -1.57,1.81 l -1.43,-0.48 -1.53,4.58 1.43,0.48 a 9.53,9.53 0 0 0 0.16,2.39 l -1.34,0.72 2.15,4.33 1.35,-0.68 a 9.08,9.08 0 0 0 1.81,1.57 L 22,93.61 26.58,95.14 27,93.71 a 9.08,9.08 0 0 0 2.39,-0.16 l 0.67,1.35 4.33,-2.16 -0.68,-1.35 a 9,9 0 0 0 1.59,-1.8 z m -9.17,-0.83 a 4.54,4.54 0 1 1 5.75,-2.87 4.54,4.54 0 0 1 -5.75,2.87 z"
       class="cls-1"
       inkscape:connector-curvature="0"
       style="fill:#dbdcdd" />
    <rect
       id="rect4631"
       transform="rotate(21.08,61.097184,42.95959)"
       height="7.8299999"
       width="36"
       y="39.049999"
       x="43.110001"
       class="cls-2"
       style="fill:#a6a8ab" />
    <path
       id="path4633"
       d="M 15.32,51.1 A 23.92,23.92 0 1 1 46.25,37.38 23.94,23.94 0 0 1 15.32,51.1 Z M 31.08,10.21 A 19.9,19.9 0 1 0 42.49,35.94 19.92,19.92 0 0 0 31.08,10.21 Z"
       class="cls-2"
       inkscape:connector-curvature="0"
       style="fill:#a6a8ab" />
    <path
       id="path4635"
       d="m 75.76,68.57 a 17.83,17.83 0 1 1 23,-10.22 17.84,17.84 0 0 1 -23,10.22 z M 87.14,39.06 A 13.8,13.8 0 1 0 95.05,56.9 13.82,13.82 0 0 0 87.14,39.06 Z"
       class="cls-1"
       inkscape:connector-curvature="0"
       style="fill:#dbdcdd" />
    <rect
       id="rect4637"
       transform="rotate(60.7,51.527668,71.747819)"
       height="42.98"
       width="7.4899998"
       y="50.259998"
       x="47.779999"
       class="cls-1"
       style="fill:#dbdcdd" />
    <rect
       id="rect4639"
       transform="rotate(21.08,27.579716,84.422517)"
       height="11.4"
       width="11.4"
       y="78.75"
       x="21.870001"
       class="cls-1"
       style="fill:#dbdcdd" />
    <circle
       id="circle4641"
       r="2.8"
       cy="84.449997"
       cx="27.57"
       class="cls-2"
       style="fill:#a6a8ab" />
  </g>
</svg>
