<?xml version="1.0" encoding="UTF-8" standalone="no"?>
<!-- Generator: Adobe Illustrator 19.0.0, SVG Export Plug-In . SVG Version: 6.00 Build 0)  -->

<svg
   xmlns:dc="http://purl.org/dc/elements/1.1/"
   xmlns:cc="http://creativecommons.org/ns#"
   xmlns:rdf="http://www.w3.org/1999/02/22-rdf-syntax-ns#"
   xmlns:svg="http://www.w3.org/2000/svg"
   xmlns="http://www.w3.org/2000/svg"
   xmlns:sodipodi="http://sodipodi.sourceforge.net/DTD/sodipodi-0.dtd"
   xmlns:inkscape="http://www.inkscape.org/namespaces/inkscape"
   version="1.1"
   id="Capa_1"
   x="0px"
   y="0px"
   viewBox="0 0 496 496"
   style="enable-background:new 0 0 496 496;"
   xml:space="preserve"
   sodipodi:docname="administration.svg"
   inkscape:version="0.92.1 r15371"><metadata
     id="metadata67"><rdf:RDF><cc:Work
         rdf:about=""><dc:format>image/svg+xml</dc:format><dc:type
           rdf:resource="http://purl.org/dc/dcmitype/StillImage" /></cc:Work></rdf:RDF></metadata><defs
     id="defs65" /><sodipodi:namedview
     pagecolor="#ffffff"
     bordercolor="#666666"
     borderopacity="1"
     objecttolerance="10"
     gridtolerance="10"
     guidetolerance="10"
     inkscape:pageopacity="0"
     inkscape:pageshadow="2"
     inkscape:window-width="1920"
     inkscape:window-height="1017"
     id="namedview63"
     showgrid="false"
     inkscape:zoom="0.9516129"
     inkscape:cx="138.79936"
     inkscape:cy="248.924"
     inkscape:window-x="-8"
     inkscape:window-y="-8"
     inkscape:window-maximized="1"
     inkscape:current-layer="Capa_1" /><g
     id="g4605"
     transform="rotate(-45,248,248)"><path
       d="M 374,250.136 400.728,223.4 344.16,166.832 317.424,193.56 c -9.328,-5.152 -19.2,-9.176 -29.432,-12.128 v -37.088 c 25.84,-13.904 40,-36.736 40,-64.776 0,-33.784 -21.432,-64.064 -53.328,-75.36 L 264,0.432 V 65.8 L 248,71.136 232,65.8 V 0.432 L 221.328,4.208 C 189.432,15.504 168,45.784 168,79.568 c 0,28.04 14.16,50.872 40,64.776 v 37.088 c -10.232,2.96 -20.104,6.976 -29.432,12.128 l -26.736,-26.728 -56.568,56.568 26.728,26.736 c -5.16,9.336 -9.248,19.192 -12.2,29.432 H 72 v 80 h 37.792 c 2.96,10.24 7.04,20.096 12.2,29.432 l -26.728,26.736 56.568,56.568 26.736,-26.728 c 9.336,5.16 19.192,9.248 29.432,12.2 v 37.792 h 80 v -37.792 c 10.24,-2.96 20.096,-7.04 29.432,-12.2 l 26.736,26.728 56.568,-56.568 L 374.008,389 c 5.16,-9.336 9.248,-19.192 12.2,-29.432 H 424 v -80 h -37.792 c -2.96,-10.24 -7.04,-20.096 -12.208,-29.432 z M 184,79.568 c 0,-23.048 12.488,-44.064 32,-55.352 v 53.12 L 248,88 280,77.336 v -53.12 c 19.512,11.288 32,32.304 32,55.352 0,23.464 -12.248,41.664 -35.424,52.632 L 272,134.368 v 129.2 h 16 V 250.24 c 24.632,14.128 40,40.2 40,69.328 0,29.536 -16.128,55.32 -40,69.176 V 279.568 H 272 V 395.88 c -7.584,2.392 -15.64,3.688 -24,3.688 -8.36,0 -16.416,-1.296 -24,-3.688 V 134.368 L 219.424,132.2 C 196.248,121.232 184,103.032 184,79.568 Z m 224,264 h -34.24 l -1.48,6.12 c -3.112,12.872 -8.192,25.136 -15.112,36.44 l -3.288,5.376 24.232,24.224 -33.944,33.944 -24.224,-24.232 -5.376,3.288 c -11.312,6.92 -23.568,12 -36.44,15.112 L 272,445.328 v 34.24 h -48 v -34.24 l -6.12,-1.48 c -12.872,-3.112 -25.136,-8.192 -36.44,-15.112 l -5.376,-3.288 -24.224,24.232 -33.944,-33.944 24.232,-24.224 -3.288,-5.376 c -6.92,-11.312 -12,-23.568 -15.112,-36.44 l -1.488,-6.128 H 88 v -48 h 34.24 l 1.48,-6.12 c 3.112,-12.872 8.192,-25.136 15.112,-36.44 l 3.288,-5.376 -24.232,-24.224 33.944,-33.944 24.224,24.232 5.376,-3.288 c 8.376,-5.128 17.28,-9.232 26.56,-12.28 v 34.208 c -34.184,15.624 -56,49.256 -56,87.24 0,52.936 43.064,96 96,96 52.936,0 96,-43.064 96,-96 0,-37.992 -21.816,-71.624 -56,-87.24 v -34.208 c 9.28,3.056 18.184,7.16 26.56,12.28 l 5.376,3.288 24.224,-24.232 33.944,33.944 -24.232,24.224 3.288,5.376 c 6.92,11.312 12,23.568 15.112,36.44 l 1.496,6.12 H 408 Z m -200,-93.32 v 138.496 c -23.872,-13.856 -40,-39.64 -40,-69.176 0,-29.12 15.368,-55.192 40,-69.32 z"
       id="path2"
       inkscape:connector-curvature="0" /><rect
       x="239.25424"
       y="139.94089"
       width="16"
       height="16"
       id="rect6" /><rect
       x="239.25424"
       y="171.94087"
       width="16"
       height="16"
       id="rect8" /><rect
       x="239.25424"
       y="203.94087"
       width="16"
       height="16"
       id="rect10" /><rect
       x="240"
       y="367.56799"
       width="16"
       height="16"
       id="rect20" /><rect
       x="240"
       y="335.56799"
       width="16"
       height="16"
       id="rect22" /><rect
       x="240"
       y="303.56799"
       width="16"
       height="16"
       id="rect24" /><g
       id="g32" /><g
       id="g34" /><g
       id="g36" /><g
       id="g38" /><g
       id="g40" /><g
       id="g42" /><g
       id="g44" /><g
       id="g46" /><g
       id="g48" /><g
       id="g50" /><g
       id="g52" /><g
       id="g54" /><g
       id="g56" /><g
       id="g58" /><g
       id="g60" /></g></svg>