<?xml version="1.0" encoding="UTF-8" standalone="no"?>
<!-- Generator: Adobe Illustrator 19.0.0, SVG Export Plug-In . SVG Version: 6.00 Build 0)  -->

<svg
   xmlns:dc="http://purl.org/dc/elements/1.1/"
   xmlns:cc="http://creativecommons.org/ns#"
   xmlns:rdf="http://www.w3.org/1999/02/22-rdf-syntax-ns#"
   xmlns:svg="http://www.w3.org/2000/svg"
   xmlns="http://www.w3.org/2000/svg"
   xmlns:sodipodi="http://sodipodi.sourceforge.net/DTD/sodipodi-0.dtd"
   xmlns:inkscape="http://www.inkscape.org/namespaces/inkscape"
   version="1.1"
   id="Capa_1"
   x="0px"
   y="0px"
   viewBox="0 0 477.28815 477.28836"
   xml:space="preserve"
   sodipodi:docname="systemlog.svg"
   width="477.28815"
   height="477.28836"
   inkscape:version="0.92.1 r15371"><metadata
     id="metadata61"><rdf:RDF><cc:Work
         rdf:about=""><dc:format>image/svg+xml</dc:format><dc:type
           rdf:resource="http://purl.org/dc/dcmitype/StillImage" /></cc:Work></rdf:RDF></metadata><defs
     id="defs59" /><sodipodi:namedview
     pagecolor="#ffffff"
     bordercolor="#666666"
     borderopacity="1"
     objecttolerance="10"
     gridtolerance="10"
     guidetolerance="10"
     inkscape:pageopacity="0"
     inkscape:pageshadow="2"
     inkscape:window-width="1920"
     inkscape:window-height="1017"
     id="namedview57"
     showgrid="false"
     inkscape:zoom="0.4609375"
     inkscape:cx="238.64407"
     inkscape:cy="238.64429"
     inkscape:window-x="-8"
     inkscape:window-y="-8"
     inkscape:window-maximized="1"
     inkscape:current-layer="Capa_1" /><g
     id="g6"
     transform="scale(0.93220339)"><g
       id="g4"><path
         d="m 322.424,277.029 -21.823,-12.6 c 0.268,-2.903 0.4,-5.701 0.4,-8.429 0,-2.728 -0.132,-5.526 -0.4,-8.429 l 21.823,-12.6 c 7.174,-4.142 9.632,-13.316 5.49,-20.49 l -30,-51.962 c -4.142,-7.174 -13.315,-9.632 -20.49,-5.49 l -22.132,12.777 C 250.74,166.66 245.968,163.893 241,161.52 V 135 c 0,-8.284 -6.716,-15 -15,-15 h -60 c -8.284,0 -15,6.716 -15,15 v 26.52 c -4.968,2.373 -9.74,5.14 -14.292,8.286 l -22.132,-12.777 c -7.175,-4.144 -16.349,-1.685 -20.49,5.49 l -30,51.962 c -4.142,7.174 -1.684,16.348 5.49,20.49 l 21.823,12.6 c -0.268,2.903 -0.4,5.701 -0.4,8.429 0,2.728 0.132,5.526 0.4,8.429 l -21.823,12.6 c -7.174,4.142 -9.632,13.316 -5.49,20.49 l 30,51.962 c 4.142,7.175 13.314,9.633 20.49,5.49 l 22.132,-12.777 c 4.552,3.146 9.324,5.913 14.292,8.286 V 377 c 0,8.284 6.716,15 15,15 h 60 c 8.284,0 15,-6.716 15,-15 v -26.52 c 4.967,-2.374 9.739,-5.14 14.292,-8.286 l 22.132,12.777 c 7.174,4.143 16.348,1.684 20.49,-5.49 l 30,-51.962 c 4.142,-7.174 1.684,-16.348 -5.49,-20.49 z m -52.825,-34.678 c 0.956,5.186 1.401,9.523 1.401,13.649 0,4.126 -0.445,8.463 -1.401,13.648 -1.151,6.244 1.753,12.536 7.251,15.71 l 17.583,10.151 -15,25.981 -17.815,-10.285 c -5.5,-3.176 -12.405,-2.543 -17.235,1.579 -7,5.972 -14.875,10.538 -23.406,13.57 -5.981,2.126 -9.976,7.787 -9.976,14.134 V 362 h -30 v -21.512 c 0,-6.347 -3.995,-12.007 -9.976,-14.134 -8.531,-3.032 -16.406,-7.598 -23.406,-13.57 -4.831,-4.121 -11.735,-4.755 -17.235,-1.579 l -17.815,10.285 -15,-25.981 17.583,-10.151 c 5.496,-3.174 8.4,-9.466 7.249,-15.71 C 121.445,264.463 121,260.126 121,256 c 0,-4.126 0.445,-8.463 1.401,-13.648 1.151,-6.244 -1.753,-12.536 -7.251,-15.71 l -17.583,-10.151 15,-25.981 17.815,10.285 c 5.5,3.176 12.404,2.543 17.236,-1.579 6.999,-5.971 14.874,-10.537 23.407,-13.571 5.98,-2.126 9.975,-7.786 9.975,-14.133 V 150 h 30 v 21.511 c 0,6.347 3.995,12.007 9.975,14.133 8.533,3.034 16.408,7.6 23.407,13.571 4.831,4.122 11.735,4.756 17.236,1.579 l 17.815,-10.285 15,25.981 -17.583,10.151 c -5.499,3.174 -8.402,9.466 -7.251,15.71 z"
         id="path2"
         inkscape:connector-curvature="0" /></g></g><g
     id="g12"
     transform="scale(0.93220339)"><g
       id="g10"><path
         d="m 196,211 c -24.813,0 -45,20.187 -45,45 0,24.813 20.187,45 45,45 24.813,0 45,-20.187 45,-45 0,-24.813 -20.187,-45 -45,-45 z m 0,60 c -8.271,0 -15,-6.729 -15,-15 0,-8.271 6.729,-15 15,-15 8.271,0 15,6.729 15,15 0,8.271 -6.729,15 -15,15 z"
         id="path8"
         inkscape:connector-curvature="0" /></g></g><g
     id="g18"
     transform="scale(0.93220339)"><g
       id="g16"><path
         d="m 378.82,85.607 c -0.024,-0.024 -0.048,-0.048 -0.073,-0.073 L 305.344,13.131 C 296.851,4.663 285.571,0 273.574,0 H 45 C 20.187,0 0,20.187 0,45 v 362 c 0,24.813 20.187,45 45,45 h 176.458 l 86.221,57.481 c 4.609,3.073 10.528,3.351 15.398,0.744 4.877,-2.61 7.922,-7.693 7.922,-13.225 v -45 h 15 c 11.955,0 23.347,-4.597 32.079,-12.944 C 387.056,430.474 392,419.089 392,407 V 117.426 c 0,-12.02 -4.681,-23.32 -13.18,-31.819 z M 301,50.985 340.554,90 H 301 Z M 362,407 c 0,7.991 -7.477,15 -16,15 h -30 c -8.284,0 -15,6.716 -15,15 v 31.972 L 234.32,424.519 C 231.856,422.876 228.961,422 226,422 H 45 c -8.271,0 -15,-6.729 -15,-15 V 45 c 0,-8.271 6.729,-15 15,-15 h 226 v 75 c 0,8.284 6.716,15 15,15 h 76 z"
         id="path14"
         inkscape:connector-curvature="0" /></g></g><g
     id="g24"
     transform="scale(0.93220339)"><g
       id="g22"><path
         d="m 467,30 c -24.813,0 -45,20.187 -45,45 0,3.042 0,293.744 0,301.65 -0.041,1.788 0.241,3.647 0.881,5.427 l 29.889,89.667 c 2.042,6.125 7.773,10.256 14.23,10.256 6.457,0 12.188,-4.131 14.23,-10.257 l 29.889,-89.667 c 0.563,-1.567 0.874,-3.256 0.881,-5.016 0,-0.002 0,-0.004 0,-0.006 0,-0.004 0,-0.008 0,-0.012 0,-0.004 0,-0.008 0,-0.013 0,-0.003 0,-0.005 0,-0.008 0,-0.007 0,-0.014 0,-0.021 0,-7.909 0,-298.946 0,-302 0,-24.813 -20.187,-45 -45,-45 z M 467,419.566 457.812,392 h 18.377 z M 482,362 H 452 V 150 h 30 z m 0,-242 H 452 V 75 c 0,-8.271 6.729,-15 15,-15 8.271,0 15,6.729 15,15 z"
         id="path20"
         inkscape:connector-curvature="0" /></g></g><g
     id="g26"
     transform="translate(-17.355932,-17.35594)" /><g
     id="g28"
     transform="translate(-17.355932,-17.35594)" /><g
     id="g30"
     transform="translate(-17.355932,-17.35594)" /><g
     id="g32"
     transform="translate(-17.355932,-17.35594)" /><g
     id="g34"
     transform="translate(-17.355932,-17.35594)" /><g
     id="g36"
     transform="translate(-17.355932,-17.35594)" /><g
     id="g38"
     transform="translate(-17.355932,-17.35594)" /><g
     id="g40"
     transform="translate(-17.355932,-17.35594)" /><g
     id="g42"
     transform="translate(-17.355932,-17.35594)" /><g
     id="g44"
     transform="translate(-17.355932,-17.35594)" /><g
     id="g46"
     transform="translate(-17.355932,-17.35594)" /><g
     id="g48"
     transform="translate(-17.355932,-17.35594)" /><g
     id="g50"
     transform="translate(-17.355932,-17.35594)" /><g
     id="g52"
     transform="translate(-17.355932,-17.35594)" /><g
     id="g54"
     transform="translate(-17.355932,-17.35594)" /></svg>