<?xml version="1.0" encoding="UTF-8" standalone="no"?>
<svg
   xmlns:dc="http://purl.org/dc/elements/1.1/"
   xmlns:cc="http://creativecommons.org/ns#"
   xmlns:rdf="http://www.w3.org/1999/02/22-rdf-syntax-ns#"
   xmlns:svg="http://www.w3.org/2000/svg"
   xmlns="http://www.w3.org/2000/svg"
   id="svg4741"
   version="1.1"
   viewBox="0 0 14.752008 10.819208"
   height="10.819208mm"
   width="14.752008mm">
  <defs
     id="defs4735">
    <clipPath
       id="clipPath84"
       clipPathUnits="userSpaceOnUse">
      <path
         id="path82"
         d="M 0,0 H 1023.307 V 748.346 H 0 Z" />
    </clipPath>
    <clipPath
       id="clipPath148"
       clipPathUnits="userSpaceOnUse">
      <path
         id="path146"
         d="M 0,0 H 1023.307 V 748.346 H 0 Z" />
    </clipPath>
    <clipPath
       id="clipPath84-6"
       clipPathUnits="userSpaceOnUse">
      <path
         id="path82-0"
         d="M 0,0 H 1023.307 V 748.346 H 0 Z" />
    </clipPath>
  </defs>
  <metadata
     id="metadata4738">
    <rdf:RDF>
      <cc:Work
         rdf:about="">
        <dc:format>image/svg+xml</dc:format>
        <dc:type
           rdf:resource="http://purl.org/dc/dcmitype/StillImage" />
        <dc:title></dc:title>
      </cc:Work>
    </rdf:RDF>
  </metadata>
  <g
     transform="translate(-59.741516,-160.37193)"
     id="layer1">
    <g
       id="g5507">
      <g
         id="g94"
         transform="matrix(0.35277777,0,0,-0.35277777,68.343283,167.63063)">
        <path
           d="m 0,0 c 0,-1.734 -1.407,-3.143 -3.142,-3.143 -1.735,0 -3.143,1.409 -3.143,3.143 0,1.735 1.408,3.142 3.143,3.142 C -1.407,3.142 0,1.735 0,0 Z"
           style="fill:none;stroke:#000000;stroke-width:1.32799995;stroke-linecap:round;stroke-linejoin:round;stroke-miterlimit:10;stroke-dasharray:none;stroke-opacity:1"
           id="path96" />
      </g>
      <g
         id="g98"
         transform="matrix(0.35277777,0,0,-0.35277777,68.01848,166.84652)">
        <path
           d="M 0,0 10.371,10.368"
           style="fill:none;stroke:#000000;stroke-width:1.32799995;stroke-linecap:round;stroke-linejoin:round;stroke-miterlimit:10;stroke-dasharray:none;stroke-opacity:1"
           id="path100" />
      </g>
      <g
         id="g102"
         transform="matrix(0.35277777,0,0,-0.35277777,60.213449,168.00028)">
        <path
           d="M 0,0 H 4.19"
           style="fill:none;stroke:#000000;stroke-width:1.32799995;stroke-linecap:round;stroke-linejoin:round;stroke-miterlimit:10;stroke-dasharray:none;stroke-opacity:1"
           id="path104" />
      </g>
      <g
         id="g106"
         transform="matrix(0.35277777,0,0,-0.35277777,59.979097,170.95687)">
        <path
           d="M 0,0 H 39.805"
           style="fill:none;stroke:#000000;stroke-width:1.32799995;stroke-linecap:round;stroke-linejoin:round;stroke-miterlimit:10;stroke-dasharray:none;stroke-opacity:1"
           id="path108" />
      </g>
      <g
         id="g110"
         transform="matrix(0.35277777,0,0,-0.35277777,74.255944,168.00028)">
        <path
           d="M 0,0 H -4.19"
           style="fill:none;stroke:#000000;stroke-width:1.32799995;stroke-linecap:round;stroke-linejoin:round;stroke-miterlimit:10;stroke-dasharray:none;stroke-opacity:1"
           id="path112" />
      </g>
      <g
         id="g114"
         transform="matrix(0.35277777,0,0,-0.35277777,73.721169,164.94417)">
        <path
           d="M 0,0 -3.871,-1.603"
           style="fill:none;stroke:#000000;stroke-width:1.32799995;stroke-linecap:round;stroke-linejoin:round;stroke-miterlimit:10;stroke-dasharray:none;stroke-opacity:1"
           id="path116" />
      </g>
      <g
         id="g118"
         transform="matrix(0.35277777,0,0,-0.35277777,69.921045,161.14387)">
        <path
           d="M 0,0 -1.602,-3.871"
           style="fill:none;stroke:#000000;stroke-width:1.32799995;stroke-linecap:round;stroke-linejoin:round;stroke-miterlimit:10;stroke-dasharray:none;stroke-opacity:1"
           id="path120" />
      </g>
      <g
         id="g122"
         transform="matrix(0.35277777,0,0,-0.35277777,67.234749,160.60951)">
        <path
           d="M 0,0 V -4.19"
           style="fill:none;stroke:#000000;stroke-width:1.32799995;stroke-linecap:round;stroke-linejoin:round;stroke-miterlimit:10;stroke-dasharray:none;stroke-opacity:1"
           id="path124" />
      </g>
      <g
         id="g126"
         transform="matrix(0.35277777,0,0,-0.35277777,64.548345,161.14387)">
        <path
           d="M 0,0 1.602,-3.871"
           style="fill:none;stroke:#000000;stroke-width:1.32799995;stroke-linecap:round;stroke-linejoin:round;stroke-miterlimit:10;stroke-dasharray:none;stroke-opacity:1"
           id="path128" />
      </g>
      <g
         id="g130"
         transform="matrix(0.35277777,0,0,-0.35277777,62.270425,162.66557)">
        <path
           d="M 0,0 2.958,-2.964"
           style="fill:none;stroke:#000000;stroke-width:1.32799995;stroke-linecap:round;stroke-linejoin:round;stroke-miterlimit:10;stroke-dasharray:none;stroke-opacity:1"
           id="path132" />
      </g>
      <g
         id="g134"
         transform="matrix(0.35277777,0,0,-0.35277777,60.74833,164.94417)">
        <path
           d="M 0,0 3.869,-1.603"
           style="fill:none;stroke:#000000;stroke-width:1.32799995;stroke-linecap:round;stroke-linejoin:round;stroke-miterlimit:10;stroke-dasharray:none;stroke-opacity:1"
           id="path136" />
      </g>
    </g>
  </g>
</svg>
