<svg width="23.471mm" height="23.471mm" version="1.1" viewBox="0 0 23.471 23.471" xmlns="http://www.w3.org/2000/svg">
<g transform="translate(-73.687 -221.76)">
<g transform="matrix(.35278 0 0 -.35278 -128.57 387.58)">
<g transform="translate(606.58 404.67)">
<path d="m0 0c17.725 0 32.095 14.369 32.095 32.095 0 17.725-14.37 32.094-32.095 32.094s-32.095-14.369-32.095-32.094c0-17.726 14.37-32.095 32.095-32.095" fill="#fdd804"/>
</g>
<g transform="translate(606.58 404.67)">
<path d="m0 0c17.725 0 32.095 14.369 32.095 32.095 0 17.725-14.37 32.094-32.095 32.094s-32.095-14.369-32.095-32.094c0-17.726 14.37-32.095 32.095-32.095z" fill="none" stroke="#231f20" stroke-width="2.343"/>
</g>
<g transform="translate(604.33 445.81)">
<path d="m0 0v-2.412l-5.653-1.605c-1.153-0.383-1.85-1.132-1.85-2.269v-0.775m12.505 7.061v-2.412l5.653-1.605c1.153-0.383 1.85-1.132 1.85-2.269v-0.775m-5.178 11.664c0-2.972-2.16-5.383-4.826-5.383-2.665 0-4.826 2.411-4.826 5.383 0 2.974 2.161 5.384 4.826 5.384 2.666 0 4.826-2.41 4.826-5.384zm-0.037 0.488c-0.161-0.019-0.295-9e-3 -0.458-0.038-1.643-0.295-2.699 0.259-3.605 1.731-0.544-0.968-2.24-1.731-3.634-1.731-0.687 0-1.277 0.13-1.869 0.418m23.118-24.931h-38.349v12.399h38.349z" fill="none" stroke="#231f20" stroke-linejoin="round" stroke-miterlimit="10" stroke-width="1.328"/>
</g>
<g transform="translate(591.77 426.71)">
<path d="m0 0v-6.484m28.469 6.484v-6.484" fill="none" stroke="#231f20" stroke-linecap="round" stroke-linejoin="round" stroke-miterlimit="10" stroke-width="1.328"/>
</g>
</g>
</g>
</svg>
