<svg width="23.471mm" height="23.471mm" version="1.1" viewBox="0 0 23.471 23.471" xmlns="http://www.w3.org/2000/svg">
<g transform="translate(-147.77 -201.35)">
<g transform="matrix(.35278 0 0 -.35278 -91.323 367.17)">
<g transform="translate(711.01 404.67)">
<path d="m0 0c17.725 0 32.095 14.369 32.095 32.095 0 17.725-14.37 32.094-32.095 32.094s-32.095-14.369-32.095-32.094c0-17.726 14.37-32.095 32.095-32.095" fill="#fdd804"/>
</g>
<g transform="translate(0 -9.7073)">
<g transform="translate(711.01 414.37)">
<path d="m0 0c17.725 0 32.095 14.369 32.095 32.095 0 17.725-14.37 32.094-32.095 32.094s-32.095-14.369-32.095-32.094c0-17.726 14.37-32.095 32.095-32.095z" fill="none" stroke="#231f20" stroke-width="2.343"/>
</g>
</g>
<path d="m697.91 422.19h-6.986v12.972h6.986zm0 2.331c18.338-5.675 12.225-5.675 33.183 4.054-1.856 1.723-3.323 2.13-5.24 1.622l-7.538-2.218m-20.405 5.562h5.239c4.109 0 6.986-3.243 7.859-3.243h6.113c1.746 0 1.746-3.243 0-3.243h-9.606m13.571 18.132c0-1.584-1.385-2.87-3.092-2.87-1.709 0-3.092 1.286-3.092 2.87 0 1.587 1.383 2.871 3.092 2.871 1.707 0 3.092-1.284 3.092-2.871zm6.572 2.916c-0.773 2.207-3.552 3.246-5.777 2.051 0.529 2.353-1.399 4.467-3.887 4.467-2.486 0-4.416-2.113-3.887-4.467-2.22 1.192-5.002 0.162-5.775-2.051-0.777-2.217 0.827-4.563 3.374-4.812-1.904-1.592-1.713-4.367 0.315-5.736 1.998-1.349 4.905-0.714 5.973 1.495 1.037-2.174 3.948-2.862 5.973-1.495 2.033 1.371 2.215 4.149 0.315 5.736 2.542 0.248 4.151 2.592 3.376 4.812z" fill="none" stroke="#231f20" stroke-linecap="round" stroke-linejoin="round" stroke-miterlimit="10" stroke-width="1.328"/>
</g>
</g>
</svg>
