<?xml version="1.0" encoding="UTF-8" standalone="no"?>
<svg
   xmlns:dc="http://purl.org/dc/elements/1.1/"
   xmlns:cc="http://creativecommons.org/ns#"
   xmlns:rdf="http://www.w3.org/1999/02/22-rdf-syntax-ns#"
   xmlns:svg="http://www.w3.org/2000/svg"
   xmlns="http://www.w3.org/2000/svg"
   xml:space="preserve"
   viewBox="0 0 72.556001 68.987"
   y="0"
   x="0"
   id="vfmachine_1"
   version="1.1"
   width="92.871681"
   height="88.30336">
   <g transform="translate(-13.722,-15.507)" id="g2" />
	<path   d="m 70.346,35.015 c 1.437,-4.005 2.21,-8.034 2.21,-11.951 0,-0.032 -0.003,-0.062 -0.003,-0.093 l -12.227,0.92 a 19.157,19.157 0 0 0 -0.58,-4.307 L 70.598,13.099 A 20.467,20.467 0 0 0 65.172,5.671 L 54.963,11.706 A 15.642,15.642 0 0 0 51.896,9.64 L 57.717,1.459 C 54.968,0.523 51.961,0.035 48.791,0 l -5.804,7.592 c -1.3,-0.009 -2.64,0.081 -4.017,0.284 L 39.795,1.033 A 45.563,45.563 0 0 0 35.203,2.366 50.427,50.427 0 0 0 30.734,4.17 l -1.407,6.721 c -1.3,0.62 -2.565,1.316 -3.79,2.072 L 22.619,8.795 a 58.228,58.228 0 0 0 -7.424,6.069 l 2.214,4.598 a 42.983,42.983 0 0 0 -2.835,3.185 L 9.173,21.666 a 51.335,51.335 0 0 0 -4.818,7.735 l 5.027,1.689 a 31.992,31.992 0 0 0 -1.369,3.681 l -6.73,2.518 -0.02,0.069 C 0.481,40.199 0.071,42.941 0,45.55 l 6.911,-1.967 c 0.083,1.198 0.272,2.347 0.559,3.445 l -6.59,6.215 c 0.711,2.606 1.844,5.007 3.385,7.119 l 7.206,-6.233 a 15.143,15.143 0 0 0 2.785,2.198 l -4.124,9.445 c 2.492,1.537 5.425,2.649 8.77,3.215 l 4.585,-10.05 c 0.742,0.027 1.501,0.028 2.285,-0.015 0.79,-0.044 1.584,-0.132 2.382,-0.246 l 1.448,10.311 c 4.14,-0.625 8.321,-1.929 12.401,-3.829 L 40.298,54.396 a 42.18,42.18 0 0 0 4.903,-3.251 l 8.592,6.559 c 3.858,-3.16 7.305,-6.801 10.175,-10.773 l -8.99,-6.267 a 36.745,36.745 0 0 0 2.747,-4.982 z m -42.173,9.506 c -7.125,0.944 -11.317,-3.96 -9.912,-10.572 1.336,-6.287 7.414,-12.477 14.044,-14.206 7.131,-1.86 12.705,1.955 11.907,9.003 -0.846,7.469 -8.318,14.753 -16.039,15.775 z" style="fill:#000000" id="path2" />
</svg>