<?xml version="1.0" encoding="UTF-8" standalone="no"?>
<svg
   xmlns:dc="http://purl.org/dc/elements/1.1/"
   xmlns:cc="http://creativecommons.org/ns#"
   xmlns:rdf="http://www.w3.org/1999/02/22-rdf-syntax-ns#"
   xmlns:svg="http://www.w3.org/2000/svg"
   xmlns="http://www.w3.org/2000/svg"
   width="88.710663"
   height="88.709328"
   viewBox="0 0 23.471362 23.47101"
   version="1.1"
   id="svg4881">
  <defs
     id="defs4875" />
  <metadata
     id="metadata4878">
    <rdf:RDF>
      <cc:Work
         rdf:about="">
        <dc:format>image/svg+xml</dc:format>
        <dc:type
           rdf:resource="http://purl.org/dc/dcmitype/StillImage" />
        <dc:title></dc:title>
      </cc:Work>
    </rdf:RDF>
  </metadata>
  <g
     transform="matrix(0.35277777,0,0,-0.35277777,11.73568,23.05773)"
     id="g282">
    <path
       id="path284"
       style="fill:#fdd804;fill-opacity:1;fill-rule:nonzero;stroke:none"
       d="M 0,0 C 17.725,0 32.095,14.369 32.095,32.095 32.095,49.82 17.725,64.189 0,64.189 -17.725,64.189 -32.095,49.82 -32.095,32.095 -32.095,14.369 -17.725,0 0,0" />
  </g>
  <g
     transform="matrix(0.35277777,0,0,-0.35277777,11.73568,23.05773)"
     id="g286">
    <path
       id="path288"
       style="fill:none;stroke:#231f20;stroke-width:2.34299994;stroke-linecap:butt;stroke-linejoin:miter;stroke-miterlimit:4;stroke-dasharray:none;stroke-opacity:1"
       d="M 0,0 C 17.725,0 32.095,14.369 32.095,32.095 32.095,49.82 17.725,64.189 0,64.189 -17.725,64.189 -32.095,49.82 -32.095,32.095 -32.095,14.369 -17.725,0 0,0 Z" />
  </g>
  <g
     transform="matrix(0.02902759,0,0,0.02902759,4.0783298,4.3364356)"
     style="fill:#000000;stroke-width:229.03027344;stroke-miterlimit:4;stroke-dasharray:none"
     id="g4">
    <path
       id="path2"
       d="m 256.991,476.469 v 0 l -103.964,-0.07 c -8.307,-0.004 -15.499,-3.01 -21.372,-8.926 -5.91,-5.865 -8.938,-13.072 -8.97,-21.389 V 65.191 c 0.032,-8.365 3.057,-15.593 8.99,-21.502 5.847,-5.861 13.01,-8.84 21.276,-8.84 0.032,0 0.063,0 0.095,0 h 205.442 c 0.032,0 0.064,0 0.096,0 8.287,0 15.491,2.974 21.392,8.835 5.921,5.925 8.922,13.159 8.928,21.502 v 166.047 c 0,3.016 -2.445,5.466 -5.468,5.466 -3.018,0 -5.468,-2.45 -5.468,-5.466 V 65.191 c -0.006,-5.418 -1.875,-9.924 -5.714,-13.768 -3.817,-3.79 -8.298,-5.643 -13.686,-5.643 -0.021,0 -0.043,0 -0.064,0 H 153.031 c -5.417,-0.037 -9.825,1.831 -13.624,5.637 -3.875,3.865 -5.764,8.371 -5.786,13.794 v 380.85 c 0.021,5.369 1.908,9.848 5.766,13.676 3.831,3.859 8.286,5.723 13.648,5.729 l 98.487,0.064 v -19.748 c -15.128,-6.961 -26.319,-23.51 -33.298,-49.266 -6.744,-24.951 -17.215,-43.951 -31.12,-56.475 l -6.573,-6.154 c -5.921,-5.396 -9.317,-12.102 -10.046,-19.879 -0.713,-7.986 1.554,-14.91 6.736,-20.59 5.164,-5.67 11.822,-8.547 19.784,-8.547 0.038,0 0.069,0 0.109,0 7.753,0 14.703,2.754 20.646,8.199 l 10.113,9.283 V 186.199 c 0.017,-7.879 2.857,-14.696 8.442,-20.27 5.526,-5.567 12.325,-8.413 20.185,-8.429 7.919,0.016 14.754,2.855 20.345,8.429 5.575,5.584 8.389,12.406 8.373,20.28 v 43.907 c 4.207,-2.974 9.066,-4.484 14.492,-4.489 7.021,0.005 13.104,2.52 18.074,7.468 3.621,3.599 5.954,7.778 6.974,12.486 4.325,-3.245 9.351,-4.896 14.983,-4.922 7.06,0.032 13.136,2.573 18.107,7.549 3.577,3.567 5.879,7.72 6.888,12.385 4.304,-3.166 9.286,-4.761 14.86,-4.761 0.064,0 0.134,0 0.198,0 6.957,0 13.023,2.482 18,7.378 4.987,4.941 7.508,10.98 7.513,17.963 v 96.35 c 0.748,33.076 -7.459,55.711 -24.402,67.246 v 26.232 c 0,3.016 -2.445,5.467 -5.468,5.467 -3.017,0 -5.468,-2.451 -5.468,-5.467 v -29.248 c 0,-1.943 1.036,-3.748 2.723,-4.725 15.08,-8.766 22.374,-28.746 21.685,-59.383 l -0.005,-96.469 c 0,-4.014 -1.399,-7.35 -4.261,-10.189 -2.884,-2.836 -6.274,-4.223 -10.354,-4.223 -0.042,0 -0.085,0 -0.122,0 -4.059,0 -7.401,1.377 -10.247,4.211 -2.334,2.334 -3.652,4.977 -4.031,8.066 -0.337,2.744 -2.665,4.805 -5.431,4.805 -3.018,0 -5.537,-2.451 -5.537,-5.467 v -12.166 c 0,-4.045 -1.399,-7.408 -4.272,-10.27 -2.904,-2.915 -6.295,-4.329 -10.375,-4.351 -4.005,0.021 -7.374,1.436 -10.247,4.329 -2.387,2.403 -3.737,5.114 -4.122,8.29 -0.336,2.744 -2.664,4.805 -5.431,4.805 -3.017,0 -5.537,-2.445 -5.537,-5.467 v -12.437 c -0.016,-4.026 -1.437,-7.39 -4.33,-10.262 -2.899,-2.888 -6.285,-4.287 -10.364,-4.292 -4.048,0.005 -7.412,1.398 -10.279,4.271 -2.435,2.418 -3.797,5.141 -4.181,8.339 -0.326,2.75 -2.659,4.816 -5.431,4.816 -3.018,0 -5.537,-2.445 -5.537,-5.468 v -62.319 c 0.01,-4.943 -1.683,-9.043 -5.169,-12.54 -3.514,-3.501 -7.643,-5.215 -12.613,-5.226 -4.891,0.011 -8.971,1.719 -12.442,5.216 -3.529,3.522 -5.238,7.623 -5.248,12.561 v 128.589 c 0,2.172 -1.282,4.133 -3.269,5.008 -1.98,0.865 -4.298,0.486 -5.895,-0.982 l -19.276,-17.697 c -3.911,-3.582 -8.255,-5.322 -13.274,-5.322 -0.024,0 -0.048,0 -0.072,0 -4.84,0 -8.669,1.629 -11.721,4.977 -3.076,3.373 -4.36,7.377 -3.927,12.234 0.47,5.029 2.625,9.24 6.579,12.844 l 6.546,6.135 c 15.421,13.879 26.982,34.656 34.281,61.668 6.525,24.09 16.617,38.654 29.994,43.266 2.205,0.764 3.684,2.84 3.684,5.168 v 28.906 c 0,1.447 -0.576,2.84 -1.602,3.865 -1.026,1.025 -2.417,1.602 -3.868,1.602 z m -63.018,-79.945 h -35.677 c -3.02,0 -5.468,-2.451 -5.468,-5.467 0,-3.021 2.448,-5.467 5.468,-5.467 h 35.677 c 3.02,0 5.468,2.445 5.468,5.467 0,3.016 -2.448,5.467 -5.468,5.467 z m -0.272,-151.15 c -1.514,0 -3.006,-0.625 -4.077,-1.82 -8.148,-9.097 -14.134,-19.282 -17.792,-30.278 -0.83,-2.504 0.243,-5.242 2.552,-6.513 l 8.816,-4.853 c 5.642,-3.48 6.405,-7.362 6.466,-9.967 v -14.969 c -0.061,-2.472 -0.817,-6.342 -6.583,-9.967 l -8.669,-4.702 c -2.333,-1.266 -3.42,-4.025 -2.577,-6.54 3.679,-10.976 9.662,-21.15 17.779,-30.257 1.778,-1.991 4.733,-2.413 6.992,-0.993 l 8.1,5.087 c 5.997,3.161 9.718,1.874 11.999,0.625 l 13.029,-7.463 c 2.114,-1.286 5.099,-3.87 5.382,-10.64 l -0.336,-9.849 c -0.091,-2.706 1.81,-5.077 4.475,-5.563 5.585,-1.03 11.492,-1.575 17.477,-1.526 0.08,0 0.16,0 0.236,0 5.9,0 11.693,0.512 17.204,1.526 2.654,0.485 4.555,2.829 4.48,5.525 l -0.268,9.806 c 0.251,6.791 3.221,9.369 5.441,10.725 l 12.933,7.447 c 2.189,1.19 5.911,2.482 11.924,-0.694 l 8.33,-5.103 c 2.259,-1.394 5.19,-0.95 6.952,1.035 8.101,9.145 14.06,19.373 17.707,30.401 0.827,2.52 -0.268,5.269 -2.601,6.529 l -8.736,4.702 c -5.719,3.582 -6.45,7.421 -6.504,9.999 v 15.06 c 0.054,2.487 0.785,6.347 6.499,9.955 l 8.709,4.623 c 2.67,1.415 3.685,4.725 2.27,7.389 -1.415,2.669 -4.726,3.678 -7.396,2.269 l -8.886,-4.714 c -0.106,-0.059 -0.219,-0.123 -0.325,-0.187 -9.553,-5.947 -11.694,-13.735 -11.807,-19.224 v -15.283 c 0.112,-5.589 2.254,-13.356 11.822,-19.271 0.091,-0.054 0.187,-0.112 0.283,-0.16 L 329.716,155 c -2.675,-6.646 -6.359,-12.945 -11.005,-18.802 l -4.459,2.728 c -0.091,0.059 -0.182,0.112 -0.272,0.16 -9.932,5.317 -17.765,3.294 -22.571,0.662 l -13.156,-7.575 c -4.801,-2.925 -10.455,-8.686 -10.803,-19.943 -0.005,-0.107 -0.005,-0.214 0,-0.32 l 0.139,-5.151 c -3.523,-0.438 -7.146,-0.63 -10.856,-0.641 -3.727,-0.037 -7.342,0.203 -10.855,0.635 l 0.176,5.189 c 0,0.128 0,0.251 0,0.373 -0.384,11.248 -6.061,17.008 -10.759,19.864 l -13.248,7.585 c -4.913,2.686 -12.735,4.703 -22.659,-0.608 -0.109,-0.059 -0.222,-0.122 -0.329,-0.192 l -4.245,-2.663 c -4.641,5.813 -8.328,12.059 -11.016,18.657 l 4.648,2.52 c 0.093,0.054 0.184,0.106 0.272,0.16 9.58,5.936 11.75,13.719 11.884,19.201 v 15.236 c -0.134,5.604 -2.307,13.372 -11.897,19.276 l -4.931,2.717 c 2.683,6.63 6.389,12.902 11.066,18.732 l 4.277,-2.61 c 1.239,-0.689 2.243,-1.175 3.241,-1.602 2.782,-1.18 5.991,0.111 7.171,2.893 1.18,2.781 -0.117,5.99 -2.894,7.17 -0.673,0.288 -1.351,0.619 -2.037,0.993 l -8.049,4.927 c -0.883,0.541 -1.868,0.803 -2.848,0.803 z"
       style="fill:#000000;stroke-width:3px;stroke-miterlimit:4" />
  </g>
</svg>
