<svg width="23.471mm" height="23.471mm" version="1.1" viewBox="0 0 23.471 23.471" xmlns="http://www.w3.org/2000/svg">
<defs>
<clipPath id="a">
<path d="m0 0h1023.3v748.35h-1023.3z"/>
</clipPath>
</defs>
<g transform="translate(-154.57 -162.04)">
<g transform="matrix(.35278 0 0 -.35278 26.002 327.86)">
<g transform="translate(0 -9.7073)">
<g clip-path="url(#a)">
<g transform="translate(397.72 414.37)">
<path d="m0 0c17.725 0 32.095 14.369 32.095 32.095 0 17.725-14.37 32.094-32.095 32.094s-32.095-14.369-32.095-32.094c0-17.726 14.37-32.095 32.095-32.095" fill="#fdd804"/>
</g>
<g transform="translate(397.72 414.37)">
<path d="m0 0c17.725 0 32.095 14.369 32.095 32.095 0 17.725-14.37 32.094-32.095 32.094s-32.095-14.369-32.095-32.094c0-17.726 14.37-32.095 32.095-32.095z" fill="none" stroke="#231f20" stroke-width="2.343"/>
</g>
<g transform="translate(407.54 428.52)">
<path d="m0 0h-17.411v15.139m9.363-10.236c0.137-0.757 0.347-2.632 2.371-2.632m-9.841 0c1.095 0 2.035 0.783 2.231 1.862l0.905 4.974c0.241 1.332 1.801 1.933 2.875 1.126m-2.226-7.962c1.095 0 2.035 0.783 2.231 1.862l0.905 4.974c0.358 1.977 3.209 1.978 3.569 0l0.905-4.974c0.195-1.079 1.135-1.862 2.231-1.862" fill="none" stroke="#000" stroke-linecap="round" stroke-linejoin="round" stroke-miterlimit="10" stroke-width="1.328"/>
</g>
<g transform="translate(414.09 458.08)">
<path d="m0 0v-28.054c0-2.137-1.732-3.87-3.869-3.87h-24.991c-2.138 0-3.87 1.733-3.87 3.87v32.891c0 2.137 1.732 3.87 3.87 3.87h19.186zm0-0.967h-9.674v9.674" fill="none" stroke="#000" stroke-linecap="round" stroke-linejoin="round" stroke-miterlimit="10" stroke-width="1.328"/>
</g>
</g>
</g>
<g transform="translate(387.18 439.17)">
<path d="m0 0h21.283" fill="none" stroke="#000" stroke-linecap="round" stroke-linejoin="round" stroke-miterlimit="10" stroke-width="1.328"/>
</g>
<g transform="translate(387.18 444.46)">
<path d="m0 0h21.283" fill="none" stroke="#000" stroke-linecap="round" stroke-linejoin="round" stroke-miterlimit="10" stroke-width="1.328"/>
</g>
<g transform="translate(387.18 449.75)">
<path d="m0 0h11.894" fill="none" stroke="#000" stroke-linecap="round" stroke-linejoin="round" stroke-miterlimit="10" stroke-width="1.328"/>
</g>
</g>
</g>
</svg>
