<svg width="23.471mm" height="23.471mm" version="1.1" viewBox="0 0 23.471 23.471" xmlns="http://www.w3.org/2000/svg" xmlns:cc="http://creativecommons.org/ns#" xmlns:dc="http://purl.org/dc/elements/1.1/" xmlns:rdf="http://www.w3.org/1999/02/22-rdf-syntax-ns#">
<metadata>
<rdf:RDF>
<cc:Work rdf:about="">
<dc:format>image/svg+xml</dc:format>
<dc:type rdf:resource="http://purl.org/dc/dcmitype/StillImage"/>
<dc:title/>
</cc:Work>
</rdf:RDF>
</metadata>
<g transform="translate(-82.758 -171.87)">
<g transform="matrix(.35278 0 0 -.35278 -193.17 341.11)">
<g transform="translate(815.44 414.37)">
<path d="m0 0c17.725 0 32.095 14.369 32.095 32.095 0 17.725-14.37 32.094-32.095 32.094s-32.095-14.369-32.095-32.094c0-17.726 14.37-32.095 32.095-32.095" fill="#fdd804"/>
</g>
<g transform="translate(815.44 414.37)">
<path d="m0 0c17.725 0 32.095 14.369 32.095 32.095 0 17.725-14.37 32.094-32.095 32.094s-32.095-14.369-32.095-32.094c0-17.726 14.37-32.095 32.095-32.095z" fill="none" stroke="#231f20" stroke-width="2.343"/>
</g>
<g transform="translate(818.19 447.27)">
<path d="m0 0c0-1.831-1.594-3.313-3.563-3.313-1.968 0-3.563 1.482-3.563 3.313 0 1.83 1.595 3.313 3.563 3.313 1.969 0 3.563-1.483 3.563-3.313zm0.891 14.044c0 1.83-1.596 3.313-3.563 3.313h-1.782c-1.968 0-3.563-1.483-3.563-3.313v-4.969h8.908zm14.252-6.626c0 1.83-1.595 3.313-3.563 3.313h-1.781c-1.968 0-3.563-1.483-3.563-3.313v-4.969h8.907zm-28.505 0c0 1.83-1.595 3.313-3.563 3.313h-1.782c-1.967 0-3.563-1.483-3.563-3.313v-4.969h8.908zm28.505-13.251c0 1.83-1.595 3.313-3.563 3.313h-1.781c-1.968 0-3.563-1.483-3.563-3.313v-4.969h8.907zm-28.505 0c0 1.83-1.595 3.313-3.563 3.313h-1.782c-1.967 0-3.563-1.483-3.563-3.313v-4.969h8.908z" fill="none" stroke="#231f20" stroke-linejoin="round" stroke-miterlimit="10" stroke-width="1.328"/>
</g>
<g transform="translate(814.63 444.05)">
<path d="m0 0-8.936-17.384h17.872zm10.914 13.077c-1.768 1.686-3.952 3.045-6.446 3.747m10.502-16.032c0.168 0.836 0.222 1.633 0.222 2.514 0 0.822-0.075 1.625-0.222 2.408m-29.93 0.047c-0.152-0.799-0.232-1.619-0.232-2.455 0-0.857 0.082-1.694 0.241-2.509m10.434 15.922c-2.456-0.705-4.643-1.972-6.39-3.637" fill="none" stroke="#231f20" stroke-linecap="round" stroke-linejoin="round" stroke-miterlimit="10" stroke-width="1.328"/>
</g>
<g transform="translate(807.48 434.81)">
<path d="m0 0c-1.065 0.616-2.052 1.364-2.945 2.225m19.96-0.204c-0.761-0.708-1.59-1.335-2.474-1.872" fill="none" stroke="#231f20" stroke-linejoin="round" stroke-miterlimit="10" stroke-width="1.328"/>
</g>
</g>
</g>
</svg>
