<?xml version="1.0" encoding="UTF-8" standalone="no"?>
<svg
   xmlns:dc="http://purl.org/dc/elements/1.1/"
   xmlns:cc="http://creativecommons.org/ns#"
   xmlns:rdf="http://www.w3.org/1999/02/22-rdf-syntax-ns#"
   xmlns:svg="http://www.w3.org/2000/svg"
   xmlns="http://www.w3.org/2000/svg"
   id="svg7744"
   version="1.1"
   viewBox="0 0 13.27888 15.610634"
   height="15.610634mm"
   width="13.27888mm">
  <defs
     id="defs7738" />
  <metadata
     id="metadata7741">
    <rdf:RDF>
      <cc:Work
         rdf:about="">
        <dc:format>image/svg+xml</dc:format>
        <dc:type
           rdf:resource="http://purl.org/dc/dcmitype/StillImage" />
        <dc:title></dc:title>
      </cc:Work>
    </rdf:RDF>
  </metadata>
  <g
     transform="translate(-75.003415,-212.84348)"
     id="layer1">
    <g
       transform="matrix(2.1430553,0,0,2.1430553,-93.322303,-252.2138)"
       id="g8317">
      <g
         id="g5633"
         transform="matrix(0.35277777,0,0,-0.35277777,80.483482,218.62521)">
        <path
           d="M 0,0 C 0,0.013 0.004,0.026 0.004,0.034 0.146,3.1 2.322,3.43 3.254,3.43 H 3.271 3.306 C 4.46,3.404 6.423,2.934 6.555,0.034 6.555,0.021 6.555,0.009 6.56,0 6.564,-0.03 6.863,-2.938 5.503,-4.468 4.964,-5.076 4.246,-5.375 3.301,-5.383 H 3.28 3.258 C 2.318,-5.375 1.595,-5.076 1.061,-4.468 -0.295,-2.946 -0.004,-0.025 0,0 M 3.211,-6.538 H 3.28 3.306 3.348 c 1.253,0.021 2.267,0.462 3.015,1.305 1.646,1.855 1.372,5.036 1.343,5.34 C 7.599,2.386 6.521,3.477 5.632,3.985 4.969,4.366 4.195,4.571 3.331,4.588 H 3.301 3.284 3.258 c -0.474,0 -1.406,-0.077 -2.3,-0.586 -0.898,-0.508 -1.993,-1.599 -2.1,-3.895 -0.03,-0.304 -0.303,-3.485 1.343,-5.34 0.744,-0.843 1.757,-1.284 3.01,-1.305"
           style="fill:#000;fill-opacity:1;fill-rule:nonzero;stroke:none"
           id="path5635" />
      </g>
      <g
         id="g5637"
         transform="matrix(0.35277777,0,0,-0.35277777,84.740594,222.79306)">
        <path
           d="m 0,0 v 0.013 c 0,0.034 -0.005,0.068 -0.005,0.107 -0.025,0.846 -0.081,2.826 -1.936,3.459 -0.014,0.004 -0.031,0.008 -0.043,0.013 -1.929,0.491 -3.532,1.603 -3.55,1.616 -0.26,0.184 -0.619,0.12 -0.803,-0.141 -0.184,-0.261 -0.12,-0.62 0.141,-0.804 0.072,-0.051 1.774,-1.236 3.904,-1.783 0.996,-0.355 1.107,-1.42 1.137,-2.395 0,-0.038 0,-0.072 0.005,-0.106 0.004,-0.385 -0.022,-0.979 -0.09,-1.322 -0.693,-0.393 -3.408,-1.753 -7.539,-1.753 -4.114,0 -6.846,1.364 -7.543,1.758 -0.069,0.341 -0.098,0.936 -0.09,1.321 0,0.034 0.004,0.068 0.004,0.107 0.031,0.975 0.142,2.039 1.138,2.394 2.129,0.548 3.832,1.736 3.904,1.783 0.261,0.184 0.325,0.544 0.141,0.804 -0.184,0.261 -0.543,0.325 -0.804,0.141 -0.017,-0.012 -1.612,-1.124 -3.549,-1.616 -0.017,-0.004 -0.03,-0.009 -0.043,-0.013 -1.856,-0.637 -1.911,-2.617 -1.937,-3.459 0,-0.039 0,-0.073 -0.004,-0.107 V 0.004 c -0.004,-0.222 -0.008,-1.364 0.218,-1.937 0.043,-0.111 0.12,-0.205 0.222,-0.269 0.129,-0.086 3.203,-2.044 8.347,-2.044 5.144,0 8.219,1.962 8.347,2.044 0.098,0.064 0.179,0.158 0.222,0.269 C 0.008,-1.364 0.004,-0.223 0,0"
           style="fill:#000;fill-opacity:1;fill-rule:nonzero;stroke:none"
           id="path5639" />
      </g>
    </g>
  </g>
</svg>
