<?xml version="1.0" encoding="UTF-8" standalone="no"?>
<!-- Created with Inkscape (http://www.inkscape.org/) -->

<svg
   xmlns:dc="http://purl.org/dc/elements/1.1/"
   xmlns:cc="http://creativecommons.org/ns#"
   xmlns:rdf="http://www.w3.org/1999/02/22-rdf-syntax-ns#"
   xmlns:svg="http://www.w3.org/2000/svg"
   xmlns="http://www.w3.org/2000/svg"
   xmlns:sodipodi="http://sodipodi.sourceforge.net/DTD/sodipodi-0.dtd"
   xmlns:inkscape="http://www.inkscape.org/namespaces/inkscape"
   width="46.968933"
   height="76.608376"
   viewBox="0 0 14 19"
   version="1.1"
   id="svg8"
   inkscape:version="0.92.1 r15371"
   sodipodi:docname="device2.svg">
  <sodipodi:namedview
     id="base"
     pagecolor="#ffffff"
     bordercolor="#666666"
     borderopacity="1.0"
     inkscape:pageopacity="0.0"
     inkscape:pageshadow="2"
     inkscape:zoom="2.8"
     inkscape:cx="-126.9568"
     inkscape:cy="67.153449"
     inkscape:document-units="px"
     inkscape:current-layer="layer1"
     showgrid="false"
     inkscape:window-width="1920"
     inkscape:window-height="1017"
     inkscape:window-x="-8"
     inkscape:window-y="-8"
     inkscape:window-maximized="1"
     units="px" />
  <defs
     id="defs2" />
  <metadata
     id="metadata5">
    <rdf:RDF>
      <cc:Work
         rdf:about="">
        <dc:format>image/svg+xml</dc:format>
        <dc:type
           rdf:resource="http://purl.org/dc/dcmitype/StillImage" />
        <dc:title />
      </cc:Work>
    </rdf:RDF>
  </metadata>
  <g
     id="layer1"
     inkscape:groupmode="layer"
     inkscape:label="Layer 1"
     transform="translate(-64.795862,-81.507902)">
    <path
       style="fill:black;stroke-width:0.09158432;fill-opacity:1"
       d="m 69.931116,98.51407 c -0.327921,-0.3025 -3.103176,-4.356281 -3.23211,-4.721132 -0.04985,-0.141031 -0.06742,-0.372381 -0.03906,-0.514143 0.02843,-0.141776 0.490465,-1.365807 1.026916,-2.720094 0.536454,-1.354293 1.243509,-3.142364 1.571238,-3.973492 0.707749,-1.794881 0.795289,-1.973656 1.006027,-2.054521 0.251839,-0.09666 4.392416,1.390623 4.753053,1.707267 0.538735,0.473011 0.514366,0.645966 -0.417094,2.960487 l -0.83002,2.062462 0.197112,0.458221 c 0.328667,0.763982 0.06918,1.272361 -0.586655,1.149332 l -0.330833,-0.06207 0.178497,-0.41645 c 0.09818,-0.229028 0.177618,-0.443939 0.176569,-0.47754 -0.001,-0.03351 -0.166787,-0.177719 -0.368252,-0.320274 l -0.366296,-0.259183 -0.193016,0.436348 c -0.180969,0.409123 -0.201005,0.425406 -0.32129,0.260943 -0.248454,-0.339767 -0.342296,-0.832139 -0.216505,-1.135828 0.105292,-0.254209 0.15413,-0.279659 0.539686,-0.281284 l 0.423917,-0.0017 0.732672,-1.83801 c 0.402973,-1.010907 0.743398,-1.866537 0.756506,-1.901401 0.03419,-0.09091 -3.826409,-1.679406 -3.958414,-1.628751 -0.06048,0.02336 -0.259251,0.427383 -0.441675,0.898163 -0.182424,0.470786 -0.91054,2.318573 -1.618009,4.106201 l -1.286305,3.250232 0.294823,0.41314 c 0.162149,0.227234 0.834182,1.142418 1.493414,2.033752 l 1.198608,1.62061 0.756986,-1.862851 c 0.656738,-1.616171 0.741804,-1.887167 0.642361,-2.046403 -0.10106,-0.161812 -0.06834,-0.238843 0.276513,-0.6507 0.215116,-0.25695 0.440361,-0.467164 0.500537,-0.467164 0.06017,0 0.24551,0.113618 0.411837,0.252482 l 0.302437,0.252483 -0.06587,0.754949 c -0.06072,0.695981 -0.08153,0.754952 -0.266663,0.754952 -0.175993,0 -0.299898,0.246323 -1.00206,1.991957 -0.44069,1.095575 -0.868038,2.043473 -0.949668,2.106437 -0.230348,0.177682 -0.452464,0.13697 -0.749899,-0.137375 z"
       id="path4506"
       inkscape:connector-curvature="0"
       sodipodi:nodetypes="csccsccscccccccccscccsccssccsccccsscsscccc" />
  </g>
</svg>
