<?xml version="1.0" encoding="UTF-8" standalone="no"?>
<svg
   xmlns:dc="http://purl.org/dc/elements/1.1/"
   xmlns:cc="http://creativecommons.org/ns#"
   xmlns:rdf="http://www.w3.org/1999/02/22-rdf-syntax-ns#"
   xmlns:svg="http://www.w3.org/2000/svg"
   xmlns="http://www.w3.org/2000/svg"
   height="329.08374"
   width="202.45918"
   xml:space="preserve"
   viewBox="0 0 202.45919 329.08375"
   y="0px"
   x="0px"
   id="Capa_1"
   version="1.1"><metadata
     id="metadata55"><rdf:RDF><cc:Work
         rdf:about=""><dc:format>image/svg+xml</dc:format><dc:type
           rdf:resource="http://purl.org/dc/dcmitype/StillImage" /><dc:title></dc:title></cc:Work></rdf:RDF></metadata><defs
     id="defs53" /><g
     transform="translate(-41.684773,24.523466)"
     id="g20" /><g
     transform="translate(-41.684773,24.523466)"
     id="g22" /><g
     transform="translate(-41.684773,24.523466)"
     id="g24" /><g
     transform="translate(-41.684773,24.523466)"
     id="g26" /><g
     transform="translate(-41.684773,24.523466)"
     id="g28" /><g
     transform="translate(-41.684773,24.523466)"
     id="g30" /><g
     transform="translate(-41.684773,24.523466)"
     id="g32" /><g
     transform="translate(-41.684773,24.523466)"
     id="g34" /><g
     transform="translate(-41.684773,24.523466)"
     id="g36" /><g
     transform="translate(-41.684773,24.523466)"
     id="g38" /><g
     transform="translate(-41.684773,24.523466)"
     id="g40" /><g
     transform="translate(-41.684773,24.523466)"
     id="g42" /><g
     transform="translate(-41.684773,24.523466)"
     id="g44" /><g
     transform="translate(-41.684773,24.523466)"
     id="g46" /><g
     transform="translate(-41.684773,24.523466)"
     id="g48" /><path
     id="path4555"
     d="m 44.630698,328.58556 c -9.1664,-1.41228 -14.16503,-2.77779 -16.89486,-4.61529 l -2.84181,-1.91288 -0.24356,-9.19278 c -0.23437,-8.8461 -0.31528,-9.19281 -2.14529,-9.19346 -3.6839,-0.002 -12.184,-4.80912 -15.83444,-8.95624 -7.19027003,-8.16858 -6.66207003,2.44921 -6.66207003,-133.9194 V 39.801155 L 2.411708,34.907652 c 4.03054,-8.207724 13.70706,-15.272223 20.91896,-15.272223 1.91981,0 1.99242,-0.25226 1.99242,-6.921341 0,-3.8067389 0.38175,-7.6346399 0.84833,-8.5064479 0.46657,-0.871808 2.49387,-2.211315 4.5051,-2.976683 3.21702,-1.22422599 8.42223,-1.36220799 43.282609,-1.14735799 47.748833,0.294283 44.218843,-0.608887 44.898613,11.48760189 l 0.42906,7.63517 32.17935,0.429058 c 31.09863,0.414649 32.29798,0.492524 35.71175,2.318803 7.04062,3.766541 12.0797,9.658432 14.00657,16.377013 0.40005,1.394927 0.85053,56.936847 1.00104,123.426485 l 0.27367,120.89025 -1.92407,4.24334 c -3.8363,8.46055 -10.10365,14.07051 -17.93504,16.05383 l -3.61978,0.91671 -0.24174,9.55879 -0.24175,9.55878 -3.12165,1.52638 c -8.52661,4.16921 -11.33275,4.34992 -70.67633,4.55141 -30.677643,0.10417 -57.708302,-0.10808 -60.068122,-0.47166 z m 72.630542,-87.2001 c 24.53928,-4.65226 46.36373,-21.2062 57.60147,-43.69096 21.51354,-43.04485 1.32088,-95.616 -43.35418,-112.871715 -19.78052,-7.640208 -42.445813,-7.305941 -61.754763,0.910754 -22.247729,9.46726 -39.399909,28.903801 -46.716399,52.938171 -2.07062,6.8019 -2.30085,8.9148 -2.36398,21.69474 -0.0605,12.25651 0.19575,15.13124 1.90746,21.39555 7.26742,26.59642 26.76996,47.61459 52.287959,56.35147 4.60765,1.57758 10.50129,3.22003 13.09697,3.6499 7.64483,1.26606 21.571633,1.08641 29.295463,-0.37791 z"
     style="fill:#1a1a1a;fill-opacity:1;stroke:#ffffff;stroke-width:0;stroke-linejoin:miter;stroke-miterlimit:4;stroke-dasharray:none;stroke-dashoffset:0;stroke-opacity:1;paint-order:markers fill stroke" /></svg>