<?xml version="1.0" encoding="UTF-8" standalone="no"?>
<!-- Generator: Adobe Illustrator 19.2.1, SVG Export Plug-In . SVG Version: 6.00 Build 0)  -->

<svg
   xmlns:dc="http://purl.org/dc/elements/1.1/"
   xmlns:cc="http://creativecommons.org/ns#"
   xmlns:rdf="http://www.w3.org/1999/02/22-rdf-syntax-ns#"
   xmlns:svg="http://www.w3.org/2000/svg"
   xmlns="http://www.w3.org/2000/svg"
   xmlns:xlink="http://www.w3.org/1999/xlink"
   xmlns:sodipodi="http://sodipodi.sourceforge.net/DTD/sodipodi-0.dtd"
   xmlns:inkscape="http://www.inkscape.org/namespaces/inkscape"
   version="1.1"
   id="layer"
   x="0px"
   y="0px"
   viewBox="0 0 600.09998 123.30216"
   xml:space="preserve"
   sodipodi:docname="mtconnect.svg"
   inkscape:version="0.92.1 r15371"
   width="600.09998"
   height="123.30216"><metadata
     id="metadata51"><rdf:RDF><cc:Work
         rdf:about=""><dc:format>image/svg+xml</dc:format><dc:type
           rdf:resource="http://purl.org/dc/dcmitype/StillImage" /><dc:title /></cc:Work></rdf:RDF></metadata><defs
     id="defs49" /><sodipodi:namedview
     pagecolor="#ffffff"
     bordercolor="#666666"
     borderopacity="1"
     objecttolerance="10"
     gridtolerance="10"
     guidetolerance="10"
     inkscape:pageopacity="0"
     inkscape:pageshadow="2"
     inkscape:window-width="1920"
     inkscape:window-height="1017"
     id="namedview47"
     showgrid="false"
     inkscape:zoom="1.4478528"
     inkscape:cx="133.84382"
     inkscape:cy="12.599829"
     inkscape:window-x="-8"
     inkscape:window-y="-8"
     inkscape:window-maximized="1"
     inkscape:current-layer="layer" /><style
     type="text/css"
     id="style2">
	.st0{fill:#58585B;}
</style><g
     id="g8"
     transform="matrix(0.82572199,0,0,0.82572199,35.695104,-204.27358)"
     style="fill:#000000;fill-opacity:1"><path
       style="fill:#000000;fill-opacity:1"
       inkscape:connector-curvature="0"
       id="path4"
       d="m 265.3,351.5 c -1.6,19.5 -15.8,32.1 -35.2,32.1 -25.4,0 -38.7,-18.4 -38.7,-42.4 0,-24.4 11.7,-44.6 38.3,-44.6 21.6,0 33.9,12.8 35.6,33.9 l -24.2,1.2 c 0.2,-7.2 -2.5,-16.2 -11.2,-16.2 -11.5,0 -12,17.6 -12,25.6 0,8.5 0.5,22.9 12.2,22.9 8,0 11.1,-7 11.5,-14.1 l 23.7,1.6"
       class="st0" /><path
       style="fill:#000000;fill-opacity:1"
       inkscape:connector-curvature="0"
       id="path6"
       d="m 288.6,350.6 c 0,16.9 4.1,18.1 8.5,18.1 4.4,0 8.5,-1.2 8.5,-18.1 0,-6 -0.1,-17 -8.5,-17 -8.4,-0.1 -8.5,10.9 -8.5,17 m 43.2,0.8 c 0,19.1 -15.4,32.2 -34.6,32.2 -19.2,0 -34.6,-13.1 -34.6,-32.2 0,-20.2 14.9,-33.3 34.6,-33.3 19.6,0 34.6,13.1 34.6,33.3"
       class="st0" /></g><g
     id="g18"
     transform="matrix(0.82572199,0,0,0.82572199,35.695104,-204.27358)"><defs
       id="defs11"><path
         inkscape:connector-curvature="0"
         d="m 101.8,260.6 -11.9,45.2 c -2.4,10.1 -3,12.8 -4.9,25.8 -1.5,-9.5 -1.9,-11.9 -4.3,-22.4 l -13,-48.6 H 20.1 v 105.2 h 31.6 v -64.7 c 0,-6 -0.2,-7.6 -0.6,-14.2 2.5,11 2.7,11.2 4.9,19.7 l 16.2,59.2 H 97 l 17.4,-62.5 c 2.1,-7.6 2.4,-9.1 4.2,-17 -0.6,8.9 -0.7,10.9 -0.9,18.6 v 60.8 h 31.7 V 260.6 Z"
         id="SVGID_1_" /></defs><use
       height="100%"
       width="100%"
       y="0"
       x="0"
       id="use13"
       style="overflow:visible;fill:#1b75bc"
       xlink:href="#SVGID_1_" /><clipPath
       id="SVGID_2_"><use
         height="100%"
         width="100%"
         y="0"
         x="0"
         id="use15"
         style="overflow:visible"
         xlink:href="#SVGID_1_" /></clipPath></g><g
     id="g28"
     transform="matrix(0.82572199,0,0,0.82572199,35.695104,-204.27358)"><defs
       id="defs21"><path
         inkscape:connector-curvature="0"
         d="m 156.5,260.4 v 26.1 h 26.7 v 79.3 h 14.1 c -3.9,-6.9 -5.9,-15.3 -5.9,-24.6 0,-19.9 7.8,-37 25,-42.6 v -12 h 26.7 v -26.1 h -86.6 z"
         id="SVGID_3_" /></defs><use
       height="100%"
       width="100%"
       y="0"
       x="0"
       id="use23"
       style="overflow:visible;fill:#1b75bc"
       xlink:href="#SVGID_3_" /><clipPath
       id="SVGID_4_"><use
         height="100%"
         width="100%"
         y="0"
         x="0"
         id="use25"
         style="overflow:visible"
         xlink:href="#SVGID_3_" /></clipPath></g><g
     id="g42"
     transform="matrix(0.82572199,0,0,0.82572199,35.695104,-204.27358)"
     style="fill:#000000;fill-opacity:1"><path
       style="fill:#000000;fill-opacity:1"
       inkscape:connector-curvature="0"
       id="path30"
       d="m 352.8,319.4 v 8.9 h 0.2 c 3,-7.1 10.2,-10.1 17.9,-10.1 5.9,0 12.7,1.7 16.4,6.5 3.9,5.2 3.9,12.3 3.9,18.9 v 38.8 h -24.4 v -38.2 c 0,-3.8 0,-9.1 -5.3,-9.1 -6.8,0 -7.4,5.8 -7.4,11 v 36.4 h -24.4 v -63 h 23.1 z"
       class="st0" /><path
       style="fill:#000000;fill-opacity:1"
       inkscape:connector-curvature="0"
       id="path32"
       d="m 414.9,319.4 v 8.9 h 0.2 c 3,-7.1 10.2,-10.1 17.9,-10.1 5.9,0 12.7,1.7 16.4,6.5 3.9,5.2 3.9,12.3 3.9,18.9 v 38.8 H 429 v -38.2 c 0,-3.8 0,-9.1 -5.3,-9.1 -6.8,0 -7.4,5.8 -7.4,11 v 36.4 h -24.4 v -63 h 23 z"
       class="st0" /><path
       style="fill:#000000;fill-opacity:1"
       inkscape:connector-curvature="0"
       id="path34"
       d="m 494.6,343.4 c 0,-6.2 -2,-10.9 -8.9,-10.9 -6.4,0 -9,5.1 -8.7,10.9 z m 24.6,17.9 c -3.8,15.3 -17.4,22.3 -32.3,22.3 -9.2,0 -18.2,-2 -25.4,-8.3 -6.8,-6 -10.4,-14.7 -10.4,-23.7 0,-8.5 3.3,-17.7 9.2,-23.8 6.4,-6.7 16,-9.7 25,-9.7 21,0 33.8,13.6 33.8,34.3 v 3.3 h -42.2 c -0.4,6.8 2.1,11.7 9.5,11.7 5.5,0 8.6,-2.2 9.6,-7.6 z"
       class="st0" /><path
       style="fill:#000000;fill-opacity:1"
       inkscape:connector-curvature="0"
       id="path36"
       d="m 579.8,358.7 c -2.2,16.3 -13.8,24.9 -29.8,24.9 -9.1,0 -16.5,-2.1 -23.2,-8.6 -6.4,-6.4 -9.4,-14.9 -9.4,-23.9 0,-19 13.1,-32.9 32.4,-32.9 15.5,0 27.9,9.1 29.7,24.9 l -21.6,1.9 -0.1,-0.6 c -0.9,-4.3 -1.9,-9.2 -7.3,-9.2 -7.8,0 -7.8,10.2 -7.8,15.8 0,5.9 0.1,15.5 8.1,15.5 5.3,0 7.3,-4.8 7.9,-9.4 z"
       class="st0" /><path
       style="fill:#000000;fill-opacity:1"
       inkscape:connector-curvature="0"
       id="path38"
       d="m 574.3,335.4 v -16 h 10.2 l 1.9,-20.1 21.2,-0.7 v 20.8 h 12.6 v 16 h -12.3 v 21.7 c 0,4.6 -0.5,8.1 5.3,8.1 2.3,0 4.7,-0.5 7,-1.1 v 17.6 l -14.4,1.8 c -6.5,0.9 -12.8,-1.2 -17.6,-6.4 -4.8,-5.2 -4.7,-11.2 -4.7,-18 v -23.8 h -9.2 z"
       class="st0" /><path
       style="fill:#000000;fill-opacity:1"
       inkscape:connector-curvature="0"
       id="path40"
       d="m 612,274 c -0.3,0 -0.6,0 -0.8,0.1 v 2.2 h 0.8 c 0.9,0 1.6,-0.3 1.6,-1.1 0,-0.6 -0.4,-1.2 -1.6,-1.2 m 2.9,5.9 h -1.1 c -0.2,-0.2 -0.3,-0.8 -0.4,-1.7 -0.2,-0.8 -0.6,-1.2 -1.4,-1.2 h -0.7 v 2.8 h -1 v -6.5 c 0.5,-0.1 1.1,-0.2 1.9,-0.2 1,0 1.6,0.2 2,0.5 0.4,0.3 0.6,0.7 0.6,1.4 0,0.9 -0.6,1.4 -1.3,1.6 v 0.1 c 0.6,0.1 1,0.6 1.1,1.6 0.1,1 0.2,1.4 0.3,1.6 m -2.6,-8.4 c -2.6,0 -4.7,2.2 -4.7,5 0,2.8 2.1,5 4.7,5 0,0 0,0 0,0 2.6,0 4.6,-2.2 4.6,-5 0.2,-2.7 -1.9,-5 -4.6,-5 v 0 m 0,10.9 c -3.2,0 -5.8,-2.6 -5.8,-5.9 0,-3.3 2.6,-5.9 5.8,-5.9 v 0 c 3.2,0 5.8,2.6 5.8,5.9 0,3.3 -2.5,5.9 -5.8,5.9"
       class="st0" /></g></svg>