<?xml version="1.0" encoding="UTF-8" standalone="no"?>
<!-- Generator: Adobe Illustrator 19.0.0, SVG Export Plug-In . SVG Version: 6.00 Build 0)  -->

<svg
   xmlns:dc="http://purl.org/dc/elements/1.1/"
   xmlns:cc="http://creativecommons.org/ns#"
   xmlns:rdf="http://www.w3.org/1999/02/22-rdf-syntax-ns#"
   xmlns:svg="http://www.w3.org/2000/svg"
   xmlns="http://www.w3.org/2000/svg"
   xmlns:sodipodi="http://sodipodi.sourceforge.net/DTD/sodipodi-0.dtd"
   xmlns:inkscape="http://www.inkscape.org/namespaces/inkscape"
   version="1.1"
   id="Capa_1"
   x="0px"
   y="0px"
   viewBox="0 0 463 463"
   style="enable-background:new 0 0 463 463;"
   xml:space="preserve"
   sodipodi:docname="plant.svg"
   inkscape:version="0.92.1 r15371"><metadata
     id="metadata45"><rdf:RDF><cc:Work
         rdf:about=""><dc:format>image/svg+xml</dc:format><dc:type
           rdf:resource="http://purl.org/dc/dcmitype/StillImage" /></cc:Work></rdf:RDF></metadata><defs
     id="defs43" /><sodipodi:namedview
     pagecolor="#ffffff"
     bordercolor="#666666"
     borderopacity="1"
     objecttolerance="10"
     gridtolerance="10"
     guidetolerance="10"
     inkscape:pageopacity="0"
     inkscape:pageshadow="2"
     inkscape:window-width="1920"
     inkscape:window-height="1017"
     id="namedview41"
     showgrid="false"
     inkscape:zoom="1.4417037"
     inkscape:cx="274.38997"
     inkscape:cy="173.06869"
     inkscape:window-x="-8"
     inkscape:window-y="-8"
     inkscape:window-maximized="1"
     inkscape:current-layer="Capa_1" /><path
     inkscape:connector-curvature="0"
     id="path2"
     d="M 32.273,145.18813 H 23.5 c -4.142,0 -7.5,4.25499 -7.5,9.50623 V 347.98755 H 7.5 c -4.142,0 -7.5,4.25499 -7.5,9.50623 C 0,362.74501 3.358,367 7.5,367 h 448 c 4.142,0 7.5,-4.25499 7.5,-9.50622 0,-5.25124 -3.358,-9.50623 -7.5,-9.50623 H 447 V 93.85453 c 0,-3.42477 -1.454,-6.58464 -3.805,-8.27168 -2.352,-1.68704 -5.237,-1.64268 -7.554,0.12041 L 367,137.9051 V 93.85453 c 0,-3.42477 -1.454,-6.58464 -3.805,-8.27168 -2.352,-1.68704 -5.237,-1.64268 -7.554,0.12041 L 287,137.9051 V 93.85453 c 0,-3.42477 -1.454,-6.58464 -3.805,-8.27168 -2.352,-1.68704 -5.237,-1.64268 -7.554,0.12041 L 207,137.9051 V 93.85453 c 0,-3.42477 -1.454,-6.58464 -3.805,-8.27168 -2.352,-1.68704 -5.237,-1.64268 -7.554,0.12041 l -78.219,59.48487 h -6.695 M 287,307.42767 v -21.54744 h 65 v 21.54744 z m -80,0 v -21.54744 h 65 v 21.54744 z m -40,0 v -21.54744 h 25 v 21.54744 z m 200,-21.54744 h 65 v 21.54744 H 367 Z M 287,226.3079 v -21.54744 h 65 v 21.54744 z m -80,0 v -21.54744 h 65 v 21.54744 z m -40,0 v -21.54744 h 25 v 21.54744 z m 200,-21.54744 h 65 V 226.3079 H 367 Z M 195.805,162.96604 c 2.352,1.68704 5.237,1.64267 7.554,-0.12041 L 272,110.64379 v 44.05057 c 0,3.42477 1.454,6.58464 3.805,8.27168 2.352,1.68704 5.237,1.64267 7.554,-0.12041 L 352,110.64379 v 44.05057 c 0,3.42477 1.454,6.58464 3.805,8.27168 2.352,1.68704 5.237,1.64267 7.554,-0.12041 L 432,110.64379 v 75.10423 H 159.5 c -4.142,0 -7.5,4.25498 -7.5,9.50622 v 40.55989 c 0,5.25123 3.358,9.50622 7.5,9.50622 H 432 v 21.54744 H 159.5 c -4.142,0 -7.5,4.25498 -7.5,9.50622 v 40.55988 c 0,5.25124 3.358,9.50623 7.5,9.50623 H 432 v 21.54743 H 127 V 160.07741 l 65,-49.43362 v 44.05057 c 0,3.42477 1.454,6.58464 3.805,8.27168 z M 47.283,145.18813 47.912,123.6407 h 47.175 l 0.63,21.54743 m 0,0 H 47.283 M 31,347.98755 V 164.20058 h 81 v 183.78697 z"
     sodipodi:nodetypes="csscsssssscscccscccscccscccccccccccccccccccccccccccccccccccccccccccccccscccsccccssssccsssscccccscccccccccccc"
     style="stroke-width:1.12583137" /><path
     inkscape:connector-curvature="0"
     id="path4"
     d="m 95.5,185.74802 h -48 c -4.142,0 -7.5,4.25498 -7.5,9.50622 v 40.55989 c 0,5.25123 3.358,9.50622 7.5,9.50622 h 48 c 4.142,0 7.5,-4.25499 7.5,-9.50622 v -40.55989 c 0,-5.25124 -3.358,-9.50622 -7.5,-9.50622 z M 88,226.3079 H 55 v -21.54744 h 33 z"
     style="stroke-width:1.12583137" /><path
     inkscape:connector-curvature="0"
     id="path6"
     d="m 95.5,266.86779 h -48 c -4.142,0 -7.5,4.25498 -7.5,9.50622 v 40.55988 c 0,5.25124 3.358,9.50623 7.5,9.50623 h 48 c 4.142,0 7.5,-4.25499 7.5,-9.50623 v -40.55988 c 0,-5.25124 -3.358,-9.50622 -7.5,-9.50622 z M 88,307.42767 H 55 v -21.54744 h 33 z"
     style="stroke-width:1.12583137" /><g
     id="g10" /><g
     id="g12" /><g
     id="g14" /><g
     id="g16" /><g
     id="g18" /><g
     id="g20" /><g
     id="g22" /><g
     id="g24" /><g
     id="g26" /><g
     id="g28" /><g
     id="g30" /><g
     id="g32" /><g
     id="g34" /><g
     id="g36" /><g
     id="g38" /></svg>