<?xml version="1.0" encoding="UTF-8" standalone="no"?>
<svg
   xmlns:dc="http://purl.org/dc/elements/1.1/"
   xmlns:cc="http://creativecommons.org/ns#"
   xmlns:rdf="http://www.w3.org/1999/02/22-rdf-syntax-ns#"
   xmlns:svg="http://www.w3.org/2000/svg"
   xmlns="http://www.w3.org/2000/svg"
   height="34.084747"
   width="34.084778"
   id="svg4"
   version="1.1"
   viewBox="0 0 34.084778 34.084747">
  <metadata
     id="metadata10">
    <rdf:RDF>
      <cc:Work
         rdf:about="">
        <dc:format>image/svg+xml</dc:format>
        <dc:type
           rdf:resource="http://purl.org/dc/dcmitype/StillImage" />
        <dc:title></dc:title>
      </cc:Work>
    </rdf:RDF>
  </metadata>
  <defs
     id="defs8" />
  <path
     id="path2"
     class="ColorScheme-Text"
     d="M 17.042372,0 C 15.603985,0.008094 14.172406,0.19820282 12.781779,0.56586005 V 2.7668894 2.7918517 A 14.912076,14.912076 0 0 0 9.9774443,3.9526976 L 9.9608063,3.9360804 8.4005302,2.3758038 C 5.9145685,3.841554 3.8415353,5.9145865 2.3757851,8.4005485 L 3.4867016,9.5114642 3.9527039,9.9774677 A 14.912076,14.912076 0 0 0 2.7876924,12.781774 H 2.7585669 0.55337699 C 0.18992446,14.172947 0.00398791,15.604518 0,17.042373 c 0.008052,1.438387 0.19819435,2.869966 0.56586009,4.260594 h 2.20102901 0.024964 a 14.912076,14.912076 0 0 0 1.1608457,2.804334 L 3.4866965,24.573303 2.37578,25.684221 c 1.4657501,2.48596 3.5387834,4.558995 6.0247451,6.024745 l 1.110917,-1.110917 0.4660022,-0.466003 a 14.912076,14.912076 0 0 0 2.8043347,1.165006 v 0.657397 1.576918 c 1.391167,0.363455 2.822736,0.549391 4.260593,0.553379 0.713644,-0.0041 1.424174,-0.05671 2.130296,-0.149782 v -2.142779 c -0.703945,0.10398 -1.416847,0.159857 -2.130296,0.162264 -0.714616,-0.001 -1.425032,-0.05511 -2.130296,-0.15811 v -0.0084 -1.963866 -0.191394 A 12.78178,12.78178 0 0 1 9.6445853,27.452487 l -0.1331437,0.133144 -1.3855251,1.385523 -0.00832,0.0083 C 6.975099,28.123013 5.9629407,27.107683 5.1093833,25.96299 l 0.00415,-0.0043 1.3855248,-1.385526 0.1373041,-0.137298 A 12.78178,12.78178 0 0 1 4.4436653,19.172642 H 4.2605929 2.3008864 2.2925621 c -0.1039759,-0.703918 -0.1598634,-1.41682 -0.1622655,-2.130269 0.00107,-0.714616 0.055113,-1.425032 0.1581085,-2.130296 h 0.00832 1.9638672 0.1913939 A 12.78178,12.78178 0 0 1 6.6322158,9.6445855 L 6.4990723,9.5114423 5.1135474,8.1259168 5.1052231,8.1176553 C 5.9617421,6.9751448 6.9770717,5.9629885 8.1217644,5.1094294 l 0.00415,0.00408 1.3855251,1.3855257 0.1373038,0.1372981 A 12.78178,12.78178 0 0 1 14.912082,4.4437434 V 4.2606713 2.3009649 2.2927033 c 0.703945,-0.1041045 1.416846,-0.1599827 2.130295,-0.16239 0.714616,0.00105 1.425033,0.055112 2.130296,0.1581108 v 0.00826 1.9638602 0.1913859 a 12.78178,12.78178 0 0 1 5.267491,2.1802252 l 0.133144,-0.1331443 1.385525,-1.3855236 0.0083,-0.00826 c 1.142497,0.8565093 2.154656,1.8718405 3.008211,3.0165314 l -0.0043,0.00429 -1.385523,1.3855254 -0.137298,0.1372981 a 12.78178,12.78178 0 0 1 2.192812,5.2632326 h 0.183074 1.959706 0.0083 c 0.10398,0.703945 0.159857,1.416847 0.162264,2.130296 -10e-4,0.714616 -0.05511,1.425033 -0.15811,2.130296 h -0.0083 -1.963866 -0.191395 a 12.78178,12.78178 0 0 1 -1.556113,4.260594 h 2.417385 a 14.912076,14.912076 0 0 0 0.803022,-2.130296 h 0.657397 1.576918 c 0.363535,-1.391194 0.549471,-2.822763 0.553459,-4.26062 -0.0081,-1.438387 -0.198202,-2.869966 -0.56586,-4.260594 H 31.954474 31.292917 A 14.912076,14.912076 0 0 0 30.132071,9.9774467 l 0.01662,-0.01662 1.560277,-1.5602757 C 30.243216,5.9145844 28.170183,3.8415498 25.684221,2.3757996 l -1.551955,1.5519555 -0.02496,0.024962 A 14.912076,14.912076 0 0 0 21.302966,2.7876938 V 2.7585725 0.55338296 C 19.911798,0.18992446 18.480229,0.00398791 17.042372,0 Z m -4.260593,10.651483 v 12.78178 l 10.651483,-6.39089 z m 12.781779,14.912076 -4.260592,4.260594 4.260592,4.260593 h 8.521187 v -8.521187 z m 1.277345,2.130297 h 5.113545 v 4.260593 h -5.113545 l -2.130296,-2.130296 z"
     style="fill:#000000;fill-opacity:1;stroke:none;stroke-width:2.13029647" />
</svg>
