<svg width="23.471mm" height="23.471mm" version="1.1" viewBox="0 0 23.471 23.471" xmlns="http://www.w3.org/2000/svg">
<g transform="translate(-41.181 -111.4)">
<g transform="matrix(.35278 0 0 -.35278 -124.23 277.21)">
<g transform="translate(502.15 404.67)">
<path d="m0 0c17.725 0 32.095 14.369 32.095 32.095 0 17.725-14.37 32.094-32.095 32.094s-32.095-14.369-32.095-32.094c0-17.726 14.37-32.095 32.095-32.095" fill="#fdd804"/>
</g>
<g transform="translate(502.15 404.67)">
<path d="m0 0c17.725 0 32.095 14.369 32.095 32.095 0 17.725-14.37 32.094-32.095 32.094s-32.095-14.369-32.095-32.094c0-17.726 14.37-32.095 32.095-32.095z" fill="none" stroke="#231f20" stroke-width="2.343"/>
</g>
<g transform="translate(522.62 424.56)">
<path d="m0 0c0-1.409-1.159-2.549-2.59-2.549h-34.536c-1.43 0-2.591 1.14-2.591 2.549v23.776c0 1.409 1.161 2.549 2.591 2.549h34.536c1.431 0 2.59-1.14 2.59-2.549zm-31.946-5.757h24.175m-12.951 3.208v-3.208" fill="none" stroke="#231f20" stroke-linecap="round" stroke-linejoin="round" stroke-miterlimit="10" stroke-width="1.172"/>
</g>
<g transform="translate(503.61 425.22)">
<path d="m0 0c0-0.479-0.381-0.867-0.853-0.867-0.471 0-0.852 0.388-0.852 0.867 0 0.478 0.381 0.868 0.852 0.868 0.472 0 0.853-0.39 0.853-0.868zm-20.464 3.47h39.223" fill="none" stroke="#231f20" stroke-linejoin="round" stroke-miterlimit="10" stroke-width="1.328"/>
</g>
<g transform="translate(500.56 431.7)">
<path d="m0 0h-14.315v14.315m5.29-9.958c0-0.516-0.418-0.934-0.934-0.934-0.515 0-0.933 0.418-0.933 0.934 0 0.515 0.418 0.934 0.933 0.934 0.516 0 0.934-0.419 0.934-0.934zm4.927 5.095 2.537 3.24m-6.883-2.71 2.874-1.026m-8.745-1.662 4.181 2.493m5.652-4.964 2.742 1.553m-7.285-2.019h2.801m-8.091-2.801 3.555 2.324m2.357 6.39c0-0.516-0.418-0.934-0.933-0.934-0.516 0-0.934 0.418-0.934 0.934s0.418 0.933 0.934 0.933c0.515 0 0.933-0.417 0.933-0.933zm4.669-1.556c0-0.516-0.419-0.934-0.934-0.934-0.516 0-0.934 0.418-0.934 0.934 0 0.515 0.418 0.933 0.934 0.933 0.515 0 0.934-0.418 0.934-0.933zm3.734 4.668c0-0.516-0.418-0.934-0.934-0.934-0.515 0-0.933 0.418-0.933 0.934s0.418 0.933 0.933 0.933c0.516 0 0.934-0.417 0.934-0.933zm0-6.535c0-0.516-0.418-0.934-0.934-0.934-0.515 0-0.933 0.418-0.933 0.934 0 0.515 0.418 0.933 0.933 0.933 0.516 0 0.934-0.418 0.934-0.933zm-4.357-2.49c0-0.516-0.418-0.934-0.933-0.934-0.516 0-0.934 0.418-0.934 0.934s0.418 0.934 0.934 0.934c0.515 0 0.933-0.418 0.933-0.934z" fill="none" stroke="#000" stroke-linecap="round" stroke-linejoin="round" stroke-miterlimit="10" stroke-width=".781"/>
</g>
<g transform="translate(511.22 444.61)">
<path d="m0 0c-2.7 0-4.89-2.189-4.89-4.89s2.19-4.89 4.89-4.89c2.701 0 4.89 2.189 4.89 4.89h-4.89zm1.467-3.423h4.89c0 2.7-2.189 4.89-4.89 4.89z" fill="none" stroke="#000" stroke-linecap="round" stroke-linejoin="round" stroke-miterlimit="10" stroke-width=".781"/>
</g>
</g>
</g>
</svg>
