<svg width="23.471mm" height="23.471mm" version="1.1" viewBox="0 0 23.471 23.471" xmlns="http://www.w3.org/2000/svg">
<defs>
<clipPath id="a">
<path d="m0 0h1023.3v748.35h-1023.3z"/>
</clipPath>
</defs>
<g transform="translate(-85.026 -200.6)">
<g transform="matrix(.35278 0 0 -.35278 30.134 366.41)">
<g transform="translate(0 -9.7073)">
<g clip-path="url(#a)">
<g transform="translate(188.87 414.37)">
<path d="m0 0c17.725 0 32.095 14.369 32.095 32.095 0 17.725-14.37 32.094-32.095 32.094s-32.095-14.369-32.095-32.094c0-17.726 14.37-32.095 32.095-32.095" fill="#fdd804"/>
</g>
<g transform="translate(188.87 414.37)">
<path d="m0 0c17.725 0 32.095 14.369 32.095 32.095 0 17.725-14.37 32.094-32.095 32.094s-32.095-14.369-32.095-32.094c0-17.726 14.37-32.095 32.095-32.095z" fill="none" stroke="#231f20" stroke-width="2.343"/>
</g>
<g transform="translate(206.79 436.19)">
<path d="m0 0c0-4.835-4.235-8.755-9.459-8.755-5.223 0-9.458 3.92-9.458 8.755s4.235 8.755 9.458 8.755c5.224 0 9.459-3.92 9.459-8.755z" fill="none" stroke="#231f20" stroke-linejoin="round" stroke-miterlimit="10" stroke-width="1.328"/>
</g>
</g>
</g>
<g transform="translate(201.39 424.88)">
<path d="m0 0h-3.904v5.093m-26.547 15.279h31.232" fill="none" stroke="#231f20" stroke-linecap="round" stroke-linejoin="round" stroke-miterlimit="10" stroke-width="1.328"/>
</g>
<g transform="translate(175.78 448.78)">
<path d="m0 0c-0.513 0-0.929-0.374-0.929-0.836s0.416-0.836 0.929-0.836 0.929 0.374 0.929 0.836-0.416 0.836-0.929 0.836"/>
</g>
<g transform="translate(175.78 448.78)">
<path d="m0 0c-0.513 0-0.929-0.374-0.929-0.836s0.416-0.836 0.929-0.836 0.929 0.374 0.929 0.836-0.416 0.836-0.929 0.836z" fill="none" stroke="#231f20" stroke-miterlimit="10" stroke-width="1.328"/>
</g>
<g transform="translate(178.86 448.78)">
<path d="m0 0c-0.513 0-0.929-0.374-0.929-0.836s0.416-0.836 0.929-0.836 0.929 0.374 0.929 0.836-0.416 0.836-0.929 0.836"/>
</g>
<g transform="translate(178.86 448.78)">
<path d="m0 0c-0.513 0-0.929-0.374-0.929-0.836s0.416-0.836 0.929-0.836 0.929 0.374 0.929 0.836-0.416 0.836-0.929 0.836z" fill="none" stroke="#231f20" stroke-miterlimit="10" stroke-width="1.328"/>
</g>
<g transform="translate(181.94 448.78)">
<path d="m0 0c-0.513 0-0.929-0.374-0.929-0.836s0.416-0.836 0.929-0.836 0.929 0.374 0.929 0.836-0.416 0.836-0.929 0.836"/>
</g>
<g transform="translate(181.94 448.78)">
<path d="m0 0c-0.513 0-0.929-0.374-0.929-0.836s0.416-0.836 0.929-0.836 0.929 0.374 0.929 0.836-0.416 0.836-0.929 0.836z" fill="none" stroke="#231f20" stroke-miterlimit="10" stroke-width="1.328"/>
</g>
<g transform="translate(183.43 427.74)">
<path d="m0 0h-9.369c-1.724 0-3.124 1.301-3.124 2.904v17.426c0 1.604 1.4 2.904 3.124 2.904h24.985c1.726 0 3.123-1.3 3.123-2.904v-8.713" fill="none" stroke="#231f20" stroke-linecap="round" stroke-linejoin="round" stroke-miterlimit="10" stroke-width="1.328"/>
</g>
</g>
</g>
</svg>